<svg width="167" height="267" viewBox="0 0 167 267" fill="none" xmlns="http://www.w3.org/2000/svg">
<mask id="path-1-inside-1_443_58" fill="white">
<path fill-rule="evenodd" clip-rule="evenodd" d="M75.6483 262.226C81.0458 267.624 89.797 267.624 95.1945 262.226C95.2519 262.169 95.3087 262.111 95.3649 262.053C95.424 261.996 95.4827 261.938 95.5411 261.88L162.562 194.859C168.151 189.27 168.151 180.209 162.562 174.62C156.973 169.031 147.911 169.031 142.322 174.62L101.264 215.678L97.8221 18.0937C97.6602 8.79904 89.9941 1.133 80.6995 0.971074C71.4049 0.809144 64.0014 8.21265 64.1633 17.5073L67.6056 215.091L24.3863 171.872C18.9888 166.474 10.2376 166.474 4.84007 171.872C-0.55748 177.269 -0.557476 186.021 4.84007 191.418L75.3017 261.88L75.6483 262.226Z"/>
</mask>
<path fill-rule="evenodd" clip-rule="evenodd" d="M75.6483 262.226C81.0458 267.624 89.797 267.624 95.1945 262.226C95.2519 262.169 95.3087 262.111 95.3649 262.053C95.424 261.996 95.4827 261.938 95.5411 261.88L162.562 194.859C168.151 189.27 168.151 180.209 162.562 174.62C156.973 169.031 147.911 169.031 142.322 174.62L101.264 215.678L97.8221 18.0937C97.6602 8.79904 89.9941 1.133 80.6995 0.971074C71.4049 0.809144 64.0014 8.21265 64.1633 17.5073L67.6056 215.091L24.3863 171.872C18.9888 166.474 10.2376 166.474 4.84007 171.872C-0.55748 177.269 -0.557476 186.021 4.84007 191.418L75.3017 261.88L75.6483 262.226Z" fill="black"/>
<path d="M95.3649 262.053L93.9265 260.663L93.9503 260.639L93.9748 260.615L95.3649 262.053ZM95.5411 261.88L96.9553 263.294L95.5411 261.88ZM162.562 194.859L161.148 193.445L162.562 194.859ZM142.322 174.62L143.737 176.034L143.737 176.034L142.322 174.62ZM101.264 215.678L102.679 217.092L99.3468 220.424L99.2647 215.713L101.264 215.678ZM97.8221 18.0937L99.8218 18.0588L97.8221 18.0937ZM64.1633 17.5073L66.163 17.4724L66.163 17.4724L64.1633 17.5073ZM67.6056 215.091L69.6053 215.056L69.6916 220.006L66.1914 216.505L67.6056 215.091ZM96.6087 263.641C90.4301 269.819 80.4126 269.819 74.234 263.641L77.0625 260.812C81.679 265.429 89.1638 265.429 93.7803 260.812L96.6087 263.641ZM96.8033 263.443C96.7391 263.509 96.6743 263.575 96.6087 263.641L93.7803 260.812C93.8296 260.763 93.8783 260.713 93.9265 260.663L96.8033 263.443ZM96.9553 263.294C96.889 263.36 96.8222 263.426 96.755 263.491L93.9748 260.615C94.0258 260.566 94.0765 260.516 94.1269 260.466L96.9553 263.294ZM163.976 196.273L96.9553 263.294L94.1269 260.466L161.148 193.445L163.976 196.273ZM163.976 173.206C170.346 179.576 170.346 189.903 163.976 196.273L161.148 193.445C165.955 188.637 165.955 180.842 161.148 176.034L163.976 173.206ZM140.908 173.206C147.278 166.836 157.606 166.836 163.976 173.206L161.148 176.034C156.34 171.226 148.544 171.226 143.737 176.034L140.908 173.206ZM99.8502 214.263L140.908 173.206L143.737 176.034L102.679 217.092L99.8502 214.263ZM99.2647 215.713L95.8224 18.1285L99.8218 18.0588L103.264 215.643L99.2647 215.713ZM95.8224 18.1285C95.6792 9.91117 88.882 3.11393 80.6647 2.97077L80.7344 -1.02862C91.1063 -0.847924 99.6411 7.68691 99.8218 18.0588L95.8224 18.1285ZM80.6647 2.97077C72.5018 2.82856 66.0208 9.30952 66.163 17.4724L62.1636 17.5421C61.982 7.11578 70.308 -1.21027 80.7344 -1.02862L80.6647 2.97077ZM66.163 17.4724L69.6053 215.056L65.6059 215.126L62.1636 17.5421L66.163 17.4724ZM25.8005 170.458L69.0198 213.677L66.1914 216.505L22.9721 173.286L25.8005 170.458ZM3.42585 170.458C9.60445 164.279 19.6219 164.279 25.8005 170.458L22.9721 173.286C18.3556 168.67 10.8708 168.67 6.25428 173.286L3.42585 170.458ZM3.42586 192.832C-2.75274 186.654 -2.75274 176.636 3.42585 170.458L6.25428 173.286C1.63778 177.903 1.63779 185.387 6.25429 190.004L3.42586 192.832ZM73.8875 263.294L3.42586 192.832L6.25429 190.004L76.7159 260.466L73.8875 263.294ZM74.234 263.641L73.8875 263.294L76.7159 260.466L77.0625 260.812L74.234 263.641Z" fill="white" mask="url(#path-1-inside-1_443_58)"/>
</svg>
