<svg width="235" height="200" viewBox="0 0 235 200" fill="none" xmlns="http://www.w3.org/2000/svg">
<path d="M35.3877 108.797C33.2993 85.1488 39.6922 61.5292 53.4228 42.1627C67.1533 22.7962 87.326 8.94629 110.332 3.0902C133.339 -2.7659 157.678 -0.246126 178.997 10.1988C200.316 20.6437 217.223 38.3324 226.696 60.101C236.168 81.8695 237.586 106.298 230.698 129.017C223.809 151.735 209.063 171.262 189.096 184.105C169.13 196.947 145.246 202.267 121.716 199.114C98.1864 195.96 76.5462 184.538 60.6661 166.892L69.331 159.094C83.3599 174.684 102.478 184.774 123.265 187.56C144.051 190.346 165.151 185.646 182.79 174.301C200.43 162.955 213.457 145.705 219.542 125.634C225.628 105.564 224.375 83.9829 216.007 64.7519C207.639 45.5208 192.702 29.894 173.868 20.6666C155.035 11.4392 133.532 9.21318 113.208 14.3866C92.8832 19.5601 75.062 31.7956 62.9319 48.9046C50.8019 66.0136 45.1542 86.88 46.9991 107.771L35.3877 108.797Z" fill="black"/>
<rect y="0.752888" width="61.7063" height="9.42449" rx="4.71224" transform="matrix(0.658149 0.752888 -0.658149 0.752888 7.35635 66.186)" fill="black" stroke="black"/>
<rect y="0.752888" width="61.7063" height="9.42449" rx="4.71224" transform="matrix(-0.658149 0.752888 0.658149 0.752888 75.7747 66.186)" fill="black" stroke="black"/>
</svg>
