<svg width="267" height="167" viewBox="0 0 267 167" fill="none" xmlns="http://www.w3.org/2000/svg">
<mask id="path-1-inside-1_443_67" fill="white">
<path fill-rule="evenodd" clip-rule="evenodd" d="M4.77313 75.0728C-0.624422 80.4704 -0.624425 89.2215 4.77312 94.6191C4.83053 94.6765 4.88833 94.7333 4.94649 94.7895C5.00361 94.8486 5.06135 94.9073 5.11969 94.9656L72.1403 161.986C77.7293 167.575 86.7908 167.575 92.3797 161.986C97.9687 156.397 97.9687 147.336 92.3797 141.747L51.3218 100.689L248.906 97.2467C258.2 97.0848 265.867 89.4187 266.028 80.1241C266.19 70.8295 258.787 63.426 249.492 63.5879L51.9082 67.0302L95.1276 23.8109C100.525 18.4133 100.525 9.66219 95.1276 4.26464C89.73 -1.13291 80.9789 -1.13291 75.5813 4.26464L5.1197 74.7262L4.77313 75.0728Z"/>
</mask>
<path fill-rule="evenodd" clip-rule="evenodd" d="M4.77313 75.0728C-0.624422 80.4704 -0.624425 89.2215 4.77312 94.6191C4.83053 94.6765 4.88833 94.7333 4.94649 94.7895C5.00361 94.8486 5.06135 94.9073 5.11969 94.9656L72.1403 161.986C77.7293 167.575 86.7908 167.575 92.3797 161.986C97.9687 156.397 97.9687 147.336 92.3797 141.747L51.3218 100.689L248.906 97.2467C258.2 97.0848 265.867 89.4187 266.028 80.1241C266.19 70.8295 258.787 63.426 249.492 63.5879L51.9082 67.0302L95.1276 23.8109C100.525 18.4133 100.525 9.66219 95.1276 4.26464C89.73 -1.13291 80.9789 -1.13291 75.5813 4.26464L5.1197 74.7262L4.77313 75.0728Z" fill="black"/>
<path d="M4.94649 94.7895L6.33611 93.3511L6.36068 93.3748L6.38443 93.3994L4.94649 94.7895ZM5.11969 94.9656L3.70548 96.3798L5.11969 94.9656ZM72.1403 161.986L73.5546 160.572L72.1403 161.986ZM92.3797 141.747L90.9655 143.161L90.9655 143.161L92.3797 141.747ZM51.3218 100.689L49.9076 102.103L46.5758 98.7713L51.287 98.6893L51.3218 100.689ZM248.906 97.2467L248.941 99.2464L248.906 97.2467ZM249.492 63.5879L249.527 65.5876L249.492 63.5879ZM51.9082 67.0302L51.9431 69.0299L46.9939 69.1161L50.494 65.616L51.9082 67.0302ZM75.5813 4.26464L74.1671 2.85043L75.5813 4.26464ZM5.1197 74.7262L6.53391 76.1405L5.1197 74.7262ZM3.35891 96.0333C-2.81969 89.8547 -2.81968 79.8372 3.35891 73.6586L6.18734 76.487C1.57084 81.1035 1.57084 88.5884 6.18734 93.2049L3.35891 96.0333ZM3.55687 96.2279C3.49044 96.1637 3.42445 96.0988 3.35891 96.0333L6.18734 93.2049C6.23662 93.2541 6.28621 93.3029 6.33611 93.3511L3.55687 96.2279ZM3.70548 96.3798C3.63916 96.3135 3.57351 96.2468 3.50854 96.1796L6.38443 93.3994C6.43372 93.4504 6.48354 93.5011 6.53391 93.5514L3.70548 96.3798ZM70.7261 163.401L3.70548 96.3798L6.53391 93.5514L73.5546 160.572L70.7261 163.401ZM93.794 163.401C87.4239 169.771 77.0961 169.771 70.7261 163.401L73.5546 160.572C78.3625 165.38 86.1576 165.38 90.9655 160.572L93.794 163.401ZM93.794 140.333C100.164 146.703 100.164 157.031 93.794 163.401L90.9655 160.572C95.7734 155.764 95.7734 147.969 90.9655 143.161L93.794 140.333ZM52.736 99.2748L93.794 140.333L90.9655 143.161L49.9076 102.103L52.736 99.2748ZM51.287 98.6893L248.871 95.247L248.941 99.2464L51.3566 102.689L51.287 98.6893ZM248.871 95.247C257.088 95.1038 263.886 88.3066 264.029 80.0893L268.028 80.1589C267.847 90.5308 259.313 99.0657 248.941 99.2464L248.871 95.247ZM264.029 80.0893C264.171 71.9264 257.69 65.4454 249.527 65.5876L249.457 61.5882C259.884 61.4066 268.21 69.7326 268.028 80.1589L264.029 80.0893ZM249.527 65.5876L51.9431 69.0299L51.8734 65.0305L249.457 61.5882L249.527 65.5876ZM96.5418 25.2251L53.3225 68.4444L50.494 65.616L93.7134 22.3967L96.5418 25.2251ZM96.5418 2.85042C102.72 9.02902 102.72 19.0465 96.5418 25.2251L93.7134 22.3967C98.3299 17.7802 98.3299 10.2954 93.7134 5.67885L96.5418 2.85042ZM74.1671 2.85043C80.3457 -3.32817 90.3632 -3.32817 96.5418 2.85042L93.7134 5.67885C89.0969 1.06235 81.612 1.06235 76.9955 5.67885L74.1671 2.85043ZM3.70549 73.312L74.1671 2.85043L76.9955 5.67885L6.53391 76.1405L3.70549 73.312ZM3.35891 73.6586L3.70549 73.312L6.53391 76.1405L6.18734 76.487L3.35891 73.6586Z" fill="white" mask="url(#path-1-inside-1_443_67)"/>
</svg>
