<svg width="226" height="200" viewBox="0 0 226 200" fill="none" xmlns="http://www.w3.org/2000/svg">
<path d="M26 100C26 77.9866 33.2637 56.5883 46.6647 39.1239C60.0656 21.6594 78.8548 9.10491 100.118 3.40742C121.381 -2.29008 143.931 -0.812126 164.268 7.61205C184.606 16.0362 201.596 30.9358 212.603 50C223.609 69.0642 228.018 91.2275 225.144 113.053C222.271 134.878 212.277 155.145 196.711 170.711C181.145 186.277 160.878 196.271 139.053 199.144C117.228 202.018 95.0642 197.609 76 186.603L80.6567 178.537C97.9454 188.519 118.045 192.517 137.837 189.911C157.629 187.305 176.009 178.241 190.125 164.125C204.241 150.009 213.305 131.629 215.911 111.837C218.517 92.0445 214.519 71.9453 204.537 54.6567C194.555 37.368 179.148 23.8561 160.704 16.2165C142.261 8.57689 121.812 7.23659 102.529 12.4034C83.2456 17.5703 66.2063 28.9556 54.0535 44.7935C41.9006 60.6314 35.3134 80.0368 35.3134 100H26Z" fill="black"/>
<path d="M32 132L59.7128 84L4.28719 84L32 132Z" fill="black"/>
</svg>
