<svg width="246" height="200" viewBox="0 0 246 200" fill="none" xmlns="http://www.w3.org/2000/svg">
<mask id="path-1-inside-1_443_89" fill="white">
<path fill-rule="evenodd" clip-rule="evenodd" d="M45.2462 93.9638C46.237 77.5804 51.2528 61.5977 59.9669 47.4787C71.7506 28.3863 89.6124 13.8112 110.681 6.09696C131.749 -1.61732 154.799 -2.02257 176.125 4.94636C197.452 11.9153 215.815 25.8535 228.262 44.5199C240.71 63.1863 246.519 85.4964 244.754 107.863C242.99 130.23 233.756 151.353 218.536 167.837C203.316 184.321 182.994 195.208 160.839 198.748C138.684 202.287 115.983 198.273 96.3843 187.352L110.324 162.339C124.31 170.133 140.511 172.998 156.322 170.472C172.133 167.946 186.636 160.176 197.497 148.412C208.359 136.648 214.949 121.573 216.208 105.611C217.467 89.6495 213.322 73.7278 204.439 60.4065C195.555 47.0851 182.451 37.1381 167.231 32.1647C152.011 27.1913 135.562 27.4805 120.526 32.9858C105.491 38.4911 92.7437 48.8927 84.3342 62.5181C77.9289 72.8962 74.3236 84.6854 73.7729 96.7448L98.2046 72.313C103.602 66.9155 112.353 66.9155 117.751 72.313C123.148 77.7106 123.148 86.4617 117.751 91.8593L71.0554 138.555C68.2594 141.351 64.5634 142.698 60.8999 142.598C57.2365 142.698 53.5406 141.351 50.7446 138.555L4.04816 91.8583C-1.3494 86.4608 -1.34938 77.7096 4.04816 72.3121C9.44571 66.9145 18.1969 66.9145 23.5944 72.3121L45.2462 93.9638Z"/>
</mask>
<path fill-rule="evenodd" clip-rule="evenodd" d="M45.2462 93.9638C46.237 77.5804 51.2528 61.5977 59.9669 47.4787C71.7506 28.3863 89.6124 13.8112 110.681 6.09696C131.749 -1.61732 154.799 -2.02257 176.125 4.94636C197.452 11.9153 215.815 25.8535 228.262 44.5199C240.71 63.1863 246.519 85.4964 244.754 107.863C242.99 130.23 233.756 151.353 218.536 167.837C203.316 184.321 182.994 195.208 160.839 198.748C138.684 202.287 115.983 198.273 96.3843 187.352L110.324 162.339C124.31 170.133 140.511 172.998 156.322 170.472C172.133 167.946 186.636 160.176 197.497 148.412C208.359 136.648 214.949 121.573 216.208 105.611C217.467 89.6495 213.322 73.7278 204.439 60.4065C195.555 47.0851 182.451 37.1381 167.231 32.1647C152.011 27.1913 135.562 27.4805 120.526 32.9858C105.491 38.4911 92.7437 48.8927 84.3342 62.5181C77.9289 72.8962 74.3236 84.6854 73.7729 96.7448L98.2046 72.313C103.602 66.9155 112.353 66.9155 117.751 72.313C123.148 77.7106 123.148 86.4617 117.751 91.8593L71.0554 138.555C68.2594 141.351 64.5634 142.698 60.8999 142.598C57.2365 142.698 53.5406 141.351 50.7446 138.555L4.04816 91.8583C-1.3494 86.4608 -1.34938 77.7096 4.04816 72.3121C9.44571 66.9145 18.1969 66.9145 23.5944 72.3121L45.2462 93.9638Z" fill="black"/>
<path d="M45.2462 93.9638L47.2425 94.0846L46.9742 98.5204L43.832 95.3781L45.2462 93.9638ZM59.9669 47.4787L58.2649 46.4283L58.2649 46.4283L59.9669 47.4787ZM110.681 6.09696L109.993 4.21889L110.681 6.09696ZM176.125 4.94636L176.747 3.04529L176.747 3.04529L176.125 4.94636ZM228.262 44.5199L229.926 43.4103L229.926 43.4103L228.262 44.5199ZM244.754 107.863L242.761 107.706L242.761 107.706L244.754 107.863ZM218.536 167.837L220.005 169.194L220.005 169.194L218.536 167.837ZM160.839 198.748L160.524 196.773L160.524 196.773L160.839 198.748ZM96.3843 187.352L95.4107 189.099L93.6637 188.125L94.6373 186.378L96.3843 187.352ZM110.324 162.339L108.577 161.365L109.55 159.618L111.297 160.592L110.324 162.339ZM156.322 170.472L156.007 168.497L156.007 168.497L156.322 170.472ZM197.497 148.412L198.967 149.769L198.967 149.769L197.497 148.412ZM216.208 105.611L218.202 105.769L218.202 105.769L216.208 105.611ZM204.439 60.4065L206.103 59.2969L206.103 59.2969L204.439 60.4065ZM167.231 32.1647L167.852 30.2636L167.852 30.2636L167.231 32.1647ZM120.526 32.9858L119.839 31.1078L119.839 31.1078L120.526 32.9858ZM84.3342 62.5181L82.6323 61.4676L82.6323 61.4676L84.3342 62.5181ZM73.7729 96.7448L75.1871 98.159L71.5396 101.806L71.775 96.6535L73.7729 96.7448ZM98.2046 72.313L96.7904 70.8988L96.7904 70.8988L98.2046 72.313ZM117.751 72.313L116.337 73.7272L116.337 73.7272L117.751 72.313ZM60.8999 142.598L60.845 140.598L60.9 140.597L60.9549 140.598L60.8999 142.598ZM4.04816 91.8583L5.46237 90.4441L5.46237 90.4441L4.04816 91.8583ZM4.04816 72.3121L2.63394 70.8979L2.63394 70.8979L4.04816 72.3121ZM23.5944 72.3121L22.1802 73.7263L22.1802 73.7263L23.5944 72.3121ZM43.2498 93.8431C44.2605 77.1321 49.3765 60.8297 58.2649 46.4283L61.6688 48.5292C53.129 62.3657 48.2136 78.0288 47.2425 94.0846L43.2498 93.8431ZM58.2649 46.4283C70.2843 26.954 88.5034 12.0875 109.993 4.21889L111.368 7.97502C90.7215 15.535 73.2168 29.8186 61.6688 48.5292L58.2649 46.4283ZM109.993 4.21889C131.482 -3.64967 154.994 -4.06302 176.747 3.04529L175.504 6.84744C154.604 0.0178792 132.015 0.415024 111.368 7.97502L109.993 4.21889ZM176.747 3.04529C198.499 10.1536 217.23 24.3706 229.926 43.4103L226.598 45.6295C214.4 27.3364 196.404 13.677 175.504 6.84744L176.747 3.04529ZM229.926 43.4103C242.623 62.4501 248.548 85.2063 246.748 108.02L242.761 107.706C244.489 85.7865 238.797 63.9226 226.598 45.6295L229.926 43.4103ZM246.748 108.02C244.949 130.834 235.53 152.38 220.005 169.194L217.066 166.481C231.982 150.326 241.032 129.625 242.761 107.706L246.748 108.02ZM220.005 169.194C204.481 186.008 183.753 197.113 161.155 200.723L160.524 196.773C182.236 193.304 202.151 182.635 217.066 166.481L220.005 169.194ZM161.155 200.723C138.557 204.333 115.401 200.239 95.4107 189.099L97.3579 185.604C116.564 196.308 138.812 200.241 160.524 196.773L161.155 200.723ZM94.6373 186.378L108.577 161.365L112.071 163.312L98.1313 188.325L94.6373 186.378ZM111.297 160.592C124.892 168.168 140.639 170.952 156.007 168.497L156.638 172.447C140.383 175.043 123.728 172.099 109.35 164.086L111.297 160.592ZM156.007 168.497C171.375 166.042 185.47 158.49 196.028 147.056L198.967 149.769C187.801 161.863 172.892 169.85 156.638 172.447L156.007 168.497ZM196.028 147.056C206.585 135.621 212.991 120.969 214.214 105.454L218.202 105.769C216.908 122.178 210.133 137.675 198.967 149.769L196.028 147.056ZM214.214 105.454C215.438 89.9395 211.409 74.4641 202.775 61.5161L206.103 59.2969C215.235 72.9916 219.496 89.3594 218.202 105.769L214.214 105.454ZM202.775 61.5161C194.14 48.5681 181.403 38.8998 166.61 34.0658L167.852 30.2636C183.498 35.3764 196.97 45.6022 206.103 59.2969L202.775 61.5161ZM166.61 34.0658C151.817 29.2318 135.828 29.5129 121.214 34.8639L119.839 31.1078C135.295 25.4482 152.206 25.1509 167.852 30.2636L166.61 34.0658ZM121.214 34.8639C106.6 40.2149 94.2099 50.325 86.0361 63.5685L82.6323 61.4676C91.2774 47.4604 104.382 36.7674 119.839 31.1078L121.214 34.8639ZM86.0361 63.5685C79.8103 73.6558 76.3061 85.1146 75.7708 96.836L71.775 96.6535C72.3411 84.2563 76.0474 72.1367 82.6323 61.4676L86.0361 63.5685ZM99.6188 73.7272L75.1871 98.159L72.3587 95.3306L96.7904 70.8988L99.6188 73.7272ZM116.337 73.7272C111.72 69.1107 104.235 69.1107 99.6188 73.7272L96.7904 70.8988C102.969 64.7202 112.986 64.7202 119.165 70.8988L116.337 73.7272ZM116.337 90.445C120.953 85.8285 120.953 78.3437 116.337 73.7272L119.165 70.8988C125.344 77.0774 125.344 87.0949 119.165 93.2735L116.337 90.445ZM69.6412 137.141L116.337 90.445L119.165 93.2735L72.4696 139.969L69.6412 137.141ZM60.9549 140.598C64.092 140.685 67.2496 139.532 69.6412 137.141L72.4696 139.969C69.2691 143.169 65.0349 144.712 60.845 144.597L60.9549 140.598ZM52.1588 137.141C54.5503 139.532 57.7079 140.685 60.845 140.598L60.9549 144.597C56.765 144.712 52.5308 143.169 49.3304 139.969L52.1588 137.141ZM5.46237 90.4441L52.1588 137.141L49.3304 139.969L2.63394 93.2725L5.46237 90.4441ZM5.46237 73.7263C0.845878 78.3428 0.845869 85.8276 5.46237 90.4441L2.63394 93.2725C-3.54466 87.0939 -3.54464 77.0765 2.63394 70.8979L5.46237 73.7263ZM22.1802 73.7263C17.5637 69.1098 10.0789 69.1098 5.46237 73.7263L2.63394 70.8979C8.81254 64.7193 18.83 64.7193 25.0086 70.8979L22.1802 73.7263ZM43.832 95.3781L22.1802 73.7263L25.0086 70.8979L46.6604 92.5496L43.832 95.3781Z" fill="white" mask="url(#path-1-inside-1_443_89)"/>
</svg>
