<svg width="212" height="200" viewBox="0 0 212 200" fill="none" xmlns="http://www.w3.org/2000/svg">
<path d="M12 100C12 78.0697 19.2091 56.7474 32.5171 39.3166C45.8252 21.8857 64.4943 9.31294 85.6495 3.53419C106.805 -2.24455 129.273 -0.908769 149.595 7.33585C169.916 15.5805 186.964 30.2767 198.113 49.1616C209.262 68.0465 213.894 90.0727 211.296 111.849C208.697 133.624 199.012 153.942 183.733 169.673C168.453 185.405 148.426 195.677 126.735 198.908C105.044 202.14 82.8924 198.151 63.6909 187.557L69.9211 176.265C86.6463 185.493 105.941 188.967 124.835 186.153C143.728 183.338 161.173 174.39 174.482 160.688C187.791 146.986 196.227 129.288 198.49 110.32C200.753 91.353 196.719 72.1674 187.007 55.718C177.296 39.2686 162.447 26.4677 144.746 19.2864C127.045 12.105 107.475 10.9415 89.0478 15.975C70.6209 21.0085 54.3595 31.9598 42.7677 47.1427C31.1759 62.3255 24.8966 80.8979 24.8966 100H12Z" fill="black"/>
<path d="M19 126L35.4545 97.5L2.54551 97.5L19 126Z" fill="black"/>
</svg>
