<svg width="235" height="200" viewBox="0 0 235 200" fill="none" xmlns="http://www.w3.org/2000/svg">
<path d="M199.612 108.797C201.701 85.1488 195.308 61.5292 181.577 42.1627C167.847 22.7962 147.674 8.94629 124.668 3.0902C101.661 -2.7659 77.3217 -0.246126 56.0029 10.1988C34.6841 20.6437 17.7765 38.3324 8.30448 60.101C-1.16756 81.8695 -2.58619 106.298 4.30235 129.017C11.1909 151.735 25.9372 171.262 45.9037 184.105C65.8702 196.947 89.7543 202.267 113.284 199.114C136.814 195.96 158.454 184.538 174.334 166.892L165.669 159.094C151.64 174.684 132.522 184.774 111.735 187.56C90.9486 190.346 69.8486 185.646 52.2095 174.301C34.5705 162.955 21.5431 145.705 15.4575 125.634C9.37194 105.564 10.6252 83.9829 18.9931 64.7519C27.361 45.5208 42.2977 29.894 61.1315 20.6666C79.9653 11.4392 101.468 9.21318 121.792 14.3866C142.117 19.5601 159.938 31.7956 172.068 48.9046C184.198 66.0136 189.846 86.88 188.001 107.771L199.612 108.797Z" fill="black"/>
<rect y="0.752888" width="61.7063" height="9.42449" rx="4.71224" transform="matrix(-0.658149 0.752888 0.658149 0.752888 227.644 66.186)" fill="black" stroke="black"/>
<rect y="0.752888" width="61.7063" height="9.42449" rx="4.71224" transform="matrix(0.658149 0.752888 -0.658149 0.752888 159.225 66.186)" fill="black" stroke="black"/>
</svg>
