<svg width="267" height="167" viewBox="0 0 267 167" fill="none" xmlns="http://www.w3.org/2000/svg">
<mask id="path-1-inside-1_443_63" fill="white">
<path fill-rule="evenodd" clip-rule="evenodd" d="M262.226 75.6483C267.624 81.0458 267.624 89.797 262.226 95.1945C262.169 95.2519 262.111 95.3087 262.053 95.3649C261.996 95.424 261.938 95.4827 261.88 95.5411L194.859 162.562C189.27 168.151 180.208 168.151 174.62 162.562C169.031 156.973 169.031 147.911 174.62 142.322L215.677 101.264L18.0934 97.8221C8.7988 97.6602 1.13276 89.9941 0.97083 80.6995C0.808901 71.4049 8.21241 64.0014 17.507 64.1633L215.091 67.6056L171.872 24.3863C166.474 18.9888 166.474 10.2376 171.872 4.84006C177.269 -0.557488 186.02 -0.557483 191.418 4.84007L261.88 75.3017L262.226 75.6483Z"/>
</mask>
<path fill-rule="evenodd" clip-rule="evenodd" d="M262.226 75.6483C267.624 81.0458 267.624 89.797 262.226 95.1945C262.169 95.2519 262.111 95.3087 262.053 95.3649C261.996 95.424 261.938 95.4827 261.88 95.5411L194.859 162.562C189.27 168.151 180.208 168.151 174.62 162.562C169.031 156.973 169.031 147.911 174.62 142.322L215.677 101.264L18.0934 97.8221C8.7988 97.6602 1.13276 89.9941 0.97083 80.6995C0.808901 71.4049 8.21241 64.0014 17.507 64.1633L215.091 67.6056L171.872 24.3863C166.474 18.9888 166.474 10.2376 171.872 4.84006C177.269 -0.557488 186.02 -0.557483 191.418 4.84007L261.88 75.3017L262.226 75.6483Z" fill="black"/>
<path d="M262.226 75.6483L263.64 74.234L262.226 75.6483ZM262.053 95.3649L260.663 93.9265L260.639 93.9503L260.615 93.9748L262.053 95.3649ZM261.88 95.5411L263.294 96.9553L261.88 95.5411ZM194.859 162.562L193.445 161.148L194.859 162.562ZM174.62 142.322L176.034 143.737L176.034 143.737L174.62 142.322ZM215.677 101.264L217.092 102.679L220.424 99.3468L215.712 99.2647L215.677 101.264ZM18.0934 97.8221L18.0586 99.8218L18.0934 97.8221ZM17.507 64.1633L17.4722 66.163L17.4722 66.163L17.507 64.1633ZM215.091 67.6056L215.056 69.6053L220.005 69.6916L216.505 66.1914L215.091 67.6056ZM261.88 75.3017L260.465 76.7159L261.88 75.3017ZM263.64 96.6087C269.819 90.4301 269.819 80.4126 263.64 74.234L260.812 77.0625C265.428 81.679 265.428 89.1638 260.812 93.7803L263.64 96.6087ZM263.442 96.8033C263.509 96.7391 263.575 96.6743 263.64 96.6087L260.812 93.7803C260.763 93.8296 260.713 93.8783 260.663 93.9265L263.442 96.8033ZM263.294 96.9553C263.36 96.889 263.426 96.8222 263.491 96.755L260.615 93.9748C260.566 94.0258 260.516 94.0765 260.465 94.1269L263.294 96.9553ZM196.273 163.976L263.294 96.9553L260.465 94.1269L193.445 161.148L196.273 163.976ZM173.205 163.976C179.575 170.346 189.903 170.346 196.273 163.976L193.445 161.148C188.637 165.955 180.842 165.955 176.034 161.148L173.205 163.976ZM173.205 140.908C166.835 147.278 166.835 157.606 173.205 163.976L176.034 161.148C171.226 156.34 171.226 148.544 176.034 143.737L173.205 140.908ZM214.263 99.8502L173.205 140.908L176.034 143.737L217.092 102.679L214.263 99.8502ZM215.712 99.2647L18.1282 95.8224L18.0586 99.8218L215.643 103.264L215.712 99.2647ZM18.1282 95.8224C9.91093 95.6792 3.11369 88.882 2.97053 80.6647L-1.02887 80.7343C-0.848168 91.1062 7.68667 99.6411 18.0586 99.8218L18.1282 95.8224ZM2.97053 80.6647C2.82831 72.5018 9.30928 66.0208 17.4722 66.163L17.5419 62.1636C7.11554 61.982 -1.21051 70.308 -1.02887 80.7343L2.97053 80.6647ZM17.4722 66.163L215.056 69.6053L215.126 65.6059L17.5419 62.1636L17.4722 66.163ZM170.457 25.8005L213.677 69.0198L216.505 66.1914L173.286 22.9721L170.457 25.8005ZM170.457 3.42585C164.279 9.60444 164.279 19.6219 170.457 25.8005L173.286 22.9721C168.669 18.3556 168.669 10.8708 173.286 6.25427L170.457 3.42585ZM192.832 3.42585C186.654 -2.75274 176.636 -2.75275 170.457 3.42585L173.286 6.25427C177.902 1.63778 185.387 1.63778 190.004 6.25428L192.832 3.42585ZM263.294 73.8875L192.832 3.42585L190.004 6.25428L260.465 76.7159L263.294 73.8875ZM263.64 74.234L263.294 73.8875L260.465 76.7159L260.812 77.0625L263.64 74.234Z" fill="white" mask="url(#path-1-inside-1_443_63)"/>
</svg>
