<svg width="226" height="200" viewBox="0 0 226 200" fill="none" xmlns="http://www.w3.org/2000/svg">
<path d="M200 100C200 77.9866 192.736 56.5883 179.335 39.1239C165.934 21.6594 147.145 9.10491 125.882 3.40742C104.619 -2.29008 82.0694 -0.812126 61.7317 7.61205C41.3939 16.0362 24.4042 30.9358 13.3975 50C2.39075 69.0642 -2.01781 91.2275 0.855513 113.053C3.72884 134.878 13.7235 155.145 29.2893 170.711C44.8552 186.277 65.1223 196.271 86.9474 199.144C108.772 202.018 130.936 197.609 150 186.603L145.343 178.537C128.055 188.519 107.955 192.517 88.163 189.911C68.3706 187.305 49.991 178.241 35.8749 164.125C21.7587 150.009 12.6949 131.629 10.0892 111.837C7.48349 92.0445 11.4815 71.9453 21.4631 54.6567C31.4447 37.368 46.8521 23.8561 65.2957 16.2165C83.7394 8.57689 104.188 7.23659 123.471 12.4034C142.754 17.5703 159.794 28.9556 171.947 44.7935C184.099 60.6314 190.687 80.0368 190.687 100H200Z" fill="black"/>
<path d="M194 132L166.287 84L221.713 84L194 132Z" fill="black"/>
</svg>
