<svg width="212" height="200" viewBox="0 0 212 200" fill="none" xmlns="http://www.w3.org/2000/svg">
<path d="M200 100C200 78.0697 192.791 56.7474 179.483 39.3166C166.175 21.8857 147.506 9.31294 126.35 3.53419C105.195 -2.24455 82.7269 -0.908769 62.4054 7.33585C42.0838 15.5805 25.036 30.2767 13.887 49.1616C2.73793 68.0465 -1.894 90.0727 0.704417 111.849C3.30283 133.624 12.9875 153.942 28.2671 169.673C43.5467 185.405 63.574 195.677 85.2649 198.908C106.956 202.14 129.108 198.151 148.309 187.557L142.079 176.265C125.354 185.493 106.059 188.967 87.1652 186.153C68.2717 183.338 50.8273 174.39 37.5182 160.688C24.2091 146.986 15.7735 129.288 13.5102 110.32C11.2468 91.353 15.2814 72.1674 24.9926 55.718C34.7038 39.2686 49.553 26.4677 67.2538 19.2864C84.9546 12.105 104.525 10.9415 122.952 15.975C141.379 21.0085 157.641 31.9598 169.232 47.1427C180.824 62.3255 187.103 80.8979 187.103 100H200Z" fill="black"/>
<path d="M193 126L176.546 97.5L209.454 97.5L193 126Z" fill="black"/>
</svg>
