<svg width="246" height="200" viewBox="0 0 246 200" fill="none" xmlns="http://www.w3.org/2000/svg">
<mask id="path-1-inside-1_443_88" fill="white">
<path fill-rule="evenodd" clip-rule="evenodd" d="M199.818 93.9639C198.827 77.5804 193.811 61.5977 185.097 47.4788C173.313 28.3863 155.452 13.8112 134.383 6.09696C113.315 -1.61732 90.265 -2.02257 68.9387 4.94637C47.6124 11.9153 29.2493 25.8535 16.8017 44.5199C4.35417 63.1863 -1.4545 85.4964 0.309644 107.863C2.07379 130.23 11.3082 151.353 26.5283 167.837C41.7483 184.321 62.0695 195.208 84.2246 198.748C106.38 202.287 129.081 198.273 148.68 187.352L134.74 162.339C120.754 170.133 104.553 172.998 88.7419 170.472C72.9308 167.946 58.4285 160.176 47.5667 148.412C36.7049 136.648 30.1147 121.573 28.8557 105.611C27.5967 89.6495 31.7421 73.7278 40.6253 60.4065C49.5085 47.0851 62.6135 37.1381 77.833 32.1647C93.0526 27.1913 109.502 27.4805 124.538 32.9858C139.573 38.4911 152.32 48.8927 160.73 62.5181C167.135 72.8962 170.74 84.6854 171.291 96.7448L146.859 72.313C141.462 66.9155 132.711 66.9155 127.313 72.313C121.916 77.7106 121.916 86.4617 127.313 91.8593L174.009 138.555C176.805 141.351 180.501 142.698 184.164 142.598C187.828 142.698 191.523 141.351 194.319 138.555L241.016 91.8583C246.413 86.4608 246.413 77.7096 241.016 72.3121C235.618 66.9145 226.867 66.9145 221.47 72.3121L199.818 93.9639Z"/>
</mask>
<path fill-rule="evenodd" clip-rule="evenodd" d="M199.818 93.9639C198.827 77.5804 193.811 61.5977 185.097 47.4788C173.313 28.3863 155.452 13.8112 134.383 6.09696C113.315 -1.61732 90.265 -2.02257 68.9387 4.94637C47.6124 11.9153 29.2493 25.8535 16.8017 44.5199C4.35417 63.1863 -1.4545 85.4964 0.309644 107.863C2.07379 130.23 11.3082 151.353 26.5283 167.837C41.7483 184.321 62.0695 195.208 84.2246 198.748C106.38 202.287 129.081 198.273 148.68 187.352L134.74 162.339C120.754 170.133 104.553 172.998 88.7419 170.472C72.9308 167.946 58.4285 160.176 47.5667 148.412C36.7049 136.648 30.1147 121.573 28.8557 105.611C27.5967 89.6495 31.7421 73.7278 40.6253 60.4065C49.5085 47.0851 62.6135 37.1381 77.833 32.1647C93.0526 27.1913 109.502 27.4805 124.538 32.9858C139.573 38.4911 152.32 48.8927 160.73 62.5181C167.135 72.8962 170.74 84.6854 171.291 96.7448L146.859 72.313C141.462 66.9155 132.711 66.9155 127.313 72.313C121.916 77.7106 121.916 86.4617 127.313 91.8593L174.009 138.555C176.805 141.351 180.501 142.698 184.164 142.598C187.828 142.698 191.523 141.351 194.319 138.555L241.016 91.8583C246.413 86.4608 246.413 77.7096 241.016 72.3121C235.618 66.9145 226.867 66.9145 221.47 72.3121L199.818 93.9639Z" fill="black"/>
<path d="M199.818 93.9639L197.821 94.0846L198.09 98.5204L201.232 95.3781L199.818 93.9639ZM185.097 47.4788L186.799 46.4283L186.799 46.4283L185.097 47.4788ZM134.383 6.09696L135.071 4.2189L134.383 6.09696ZM68.9387 4.94637L68.3175 3.0453L68.3175 3.0453L68.9387 4.94637ZM16.8017 44.5199L15.1377 43.4103L15.1377 43.4103L16.8017 44.5199ZM0.309644 107.863L2.30345 107.706L2.30345 107.706L0.309644 107.863ZM26.5283 167.837L25.0588 169.194L25.0588 169.194L26.5283 167.837ZM84.2246 198.748L84.5401 196.773L84.5401 196.773L84.2246 198.748ZM148.68 187.352L149.653 189.099L151.4 188.125L150.427 186.378L148.68 187.352ZM134.74 162.339L136.487 161.365L135.514 159.618L133.767 160.592L134.74 162.339ZM88.7419 170.472L89.0574 168.497L89.0574 168.497L88.7419 170.472ZM47.5667 148.412L46.0973 149.769L46.0973 149.769L47.5667 148.412ZM28.8557 105.611L26.8619 105.769L26.8619 105.769L28.8557 105.611ZM40.6253 60.4065L38.9614 59.2969L38.9614 59.2969L40.6253 60.4065ZM77.833 32.1647L77.2118 30.2636L77.2118 30.2636L77.833 32.1647ZM124.538 32.9858L125.226 31.1078L125.226 31.1078L124.538 32.9858ZM160.73 62.5181L162.432 61.4676L162.432 61.4676L160.73 62.5181ZM171.291 96.7448L169.877 98.159L173.524 101.806L173.289 96.6535L171.291 96.7448ZM146.859 72.313L148.274 70.8988L148.274 70.8988L146.859 72.313ZM127.313 72.313L128.727 73.7272L128.727 73.7272L127.313 72.313ZM184.164 142.598L184.219 140.598L184.164 140.597L184.109 140.598L184.164 142.598ZM241.016 91.8583L239.602 90.4441L239.602 90.4441L241.016 91.8583ZM241.016 72.3121L242.43 70.8979L242.43 70.8979L241.016 72.3121ZM221.47 72.3121L222.884 73.7263L222.884 73.7263L221.47 72.3121ZM201.814 93.8431C200.804 77.1321 195.687 60.8297 186.799 46.4283L183.395 48.5292C191.935 62.3657 196.85 78.0288 197.821 94.0846L201.814 93.8431ZM186.799 46.4283C174.78 26.954 156.561 12.0875 135.071 4.2189L133.696 7.97502C154.343 15.535 171.847 29.8186 183.395 48.5292L186.799 46.4283ZM135.071 4.2189C113.582 -3.64966 90.0703 -4.06302 68.3175 3.0453L69.5599 6.84744C90.4597 0.0178852 113.049 0.41503 133.696 7.97502L135.071 4.2189ZM68.3175 3.0453C46.5647 10.1536 27.8342 24.3706 15.1377 43.4103L18.4657 45.6295C30.6643 27.3364 48.6602 13.677 69.5599 6.84744L68.3175 3.0453ZM15.1377 43.4103C2.44125 62.4501 -3.48359 85.2063 -1.68416 108.02L2.30345 107.706C0.574589 85.7865 6.26709 63.9226 18.4657 45.6295L15.1377 43.4103ZM-1.68416 108.02C0.115264 130.834 9.53441 152.38 25.0588 169.194L27.9977 166.481C13.0821 150.326 4.03231 129.625 2.30345 107.706L-1.68416 108.02ZM25.0588 169.194C40.5832 186.008 61.3109 197.113 83.9091 200.723L84.5401 196.773C62.8281 193.304 42.9133 182.635 27.9977 166.481L25.0588 169.194ZM83.9091 200.723C106.507 204.333 129.663 200.239 149.653 189.099L147.706 185.605C128.5 196.308 106.252 200.241 84.5401 196.773L83.9091 200.723ZM150.427 186.378L136.487 161.365L132.993 163.312L146.933 188.325L150.427 186.378ZM133.767 160.592C120.172 168.168 104.425 170.952 89.0574 168.497L88.4264 172.447C104.681 175.043 121.336 172.099 135.714 164.086L133.767 160.592ZM89.0574 168.497C73.6894 166.042 59.5935 158.49 49.0361 147.056L46.0973 149.769C57.2635 161.863 72.1722 169.85 88.4264 172.447L89.0574 168.497ZM49.0361 147.056C38.4787 135.621 32.0732 120.969 30.8495 105.454L26.8619 105.769C28.1562 122.178 34.9311 137.675 46.0973 149.769L49.0361 147.056ZM30.8495 105.454C29.6258 89.9395 33.655 74.4641 42.2893 61.5161L38.9614 59.2969C29.8292 72.9916 25.5676 89.3594 26.8619 105.769L30.8495 105.454ZM42.2893 61.5161C50.9236 48.5681 63.6612 38.8998 78.4543 34.0658L77.2118 30.2636C61.5657 35.3764 48.0935 45.6022 38.9614 59.2969L42.2893 61.5161ZM78.4543 34.0658C93.2473 29.2318 109.236 29.5129 123.85 34.8639L125.226 31.1078C109.769 25.4482 92.8579 25.1509 77.2118 30.2636L78.4543 34.0658ZM123.85 34.8639C138.464 40.2149 150.854 50.325 159.028 63.5685L162.432 61.4676C153.787 47.4604 140.682 36.7674 125.226 31.1078L123.85 34.8639ZM159.028 63.5685C165.254 73.6558 168.758 85.1146 169.293 96.836L173.289 96.6535C172.723 84.2563 169.017 72.1367 162.432 61.4676L159.028 63.5685ZM145.445 73.7272L169.877 98.159L172.705 95.3306L148.274 70.8988L145.445 73.7272ZM128.727 73.7272C133.344 69.1107 140.829 69.1107 145.445 73.7272L148.274 70.8988C142.095 64.7202 132.078 64.7202 125.899 70.8988L128.727 73.7272ZM128.727 90.445C124.111 85.8285 124.111 78.3437 128.727 73.7272L125.899 70.8988C119.72 77.0774 119.72 87.0949 125.899 93.2735L128.727 90.445ZM175.423 137.141L128.727 90.445L125.899 93.2735L172.594 139.969L175.423 137.141ZM184.109 140.598C180.972 140.685 177.814 139.532 175.423 137.141L172.594 139.969C175.795 143.169 180.029 144.712 184.219 144.597L184.109 140.598ZM192.905 137.141C190.514 139.532 187.356 140.685 184.219 140.598L184.109 144.597C188.299 144.712 192.533 143.169 195.734 139.969L192.905 137.141ZM239.602 90.4441L192.905 137.141L195.734 139.969L242.43 93.2725L239.602 90.4441ZM239.602 73.7263C244.218 78.3428 244.218 85.8276 239.602 90.4441L242.43 93.2725C248.609 87.0939 248.609 77.0765 242.43 70.8979L239.602 73.7263ZM222.884 73.7263C227.5 69.1098 234.985 69.1098 239.602 73.7263L242.43 70.8979C236.251 64.7193 226.234 64.7193 220.055 70.8979L222.884 73.7263ZM201.232 95.3781L222.884 73.7263L220.055 70.8979L198.404 92.5496L201.232 95.3781Z" fill="white" mask="url(#path-1-inside-1_443_88)"/>
</svg>
