<svg width="167" height="267" viewBox="0 0 167 267" fill="none" xmlns="http://www.w3.org/2000/svg">
<mask id="path-1-inside-1_443_57" fill="white">
<path fill-rule="evenodd" clip-rule="evenodd" d="M75.2237 4.77337C80.6212 -0.624178 89.3724 -0.62418 94.7699 4.77337C94.8274 4.83078 94.8842 4.88857 94.9404 4.94673C94.9994 5.00386 95.0582 5.0616 95.1165 5.11994L162.137 72.1406C167.726 77.7295 167.726 86.791 162.137 92.38C156.548 97.9689 147.487 97.9689 141.898 92.38L100.84 51.3221L97.3975 248.906C97.2356 258.201 89.5696 265.867 80.275 266.029C70.9804 266.191 63.5769 258.787 63.7388 249.492L67.1811 51.9085L23.9618 95.1278C18.5642 100.525 9.81306 100.525 4.41551 95.1278C-0.98204 89.7303 -0.982037 80.9791 4.41551 75.5816L74.8771 5.11994L75.2237 4.77337Z"/>
</mask>
<path fill-rule="evenodd" clip-rule="evenodd" d="M75.2237 4.77337C80.6212 -0.624178 89.3724 -0.62418 94.7699 4.77337C94.8274 4.83078 94.8842 4.88857 94.9404 4.94673C94.9994 5.00386 95.0582 5.0616 95.1165 5.11994L162.137 72.1406C167.726 77.7295 167.726 86.791 162.137 92.38C156.548 97.9689 147.487 97.9689 141.898 92.38L100.84 51.3221L97.3975 248.906C97.2356 258.201 89.5696 265.867 80.275 266.029C70.9804 266.191 63.5769 258.787 63.7388 249.492L67.1811 51.9085L23.9618 95.1278C18.5642 100.525 9.81306 100.525 4.41551 95.1278C-0.98204 89.7303 -0.982037 80.9791 4.41551 75.5816L74.8771 5.11994L75.2237 4.77337Z" fill="black"/>
<path d="M75.2237 4.77337L73.8095 3.35916L75.2237 4.77337ZM94.9404 4.94673L93.502 6.33635L93.5257 6.36093L93.5503 6.38468L94.9404 4.94673ZM95.1165 5.11994L96.5307 3.70573L95.1165 5.11994ZM162.137 72.1406L160.723 73.5548L162.137 72.1406ZM141.898 92.38L143.312 90.9658L143.312 90.9658L141.898 92.38ZM100.84 51.3221L102.254 49.9078L98.9222 46.576L98.8401 51.2872L100.84 51.3221ZM97.3975 248.906L99.3972 248.941L97.3975 248.906ZM63.7388 249.492L65.7385 249.527L65.7385 249.527L63.7388 249.492ZM67.1811 51.9085L69.1808 51.9433L69.267 46.9941L65.7669 50.4943L67.1811 51.9085ZM74.8771 5.11994L76.2913 6.53416L74.8771 5.11994ZM96.1842 3.35915C90.0056 -2.81944 79.9881 -2.81944 73.8095 3.35916L76.6379 6.18758C81.2544 1.57108 88.7392 1.57108 93.3557 6.18758L96.1842 3.35915ZM96.3787 3.55712C96.3146 3.49069 96.2497 3.4247 96.1842 3.35915L93.3557 6.18758C93.405 6.23686 93.4538 6.28646 93.502 6.33635L96.3787 3.55712ZM96.5307 3.70573C96.4644 3.6394 96.3976 3.57376 96.3304 3.50879L93.5503 6.38468C93.6013 6.43396 93.6519 6.48379 93.7023 6.53415L96.5307 3.70573ZM163.551 70.7264L96.5307 3.70573L93.7023 6.53415L160.723 73.5548L163.551 70.7264ZM163.551 93.7942C169.921 87.4242 169.921 77.0964 163.551 70.7264L160.723 73.5548C165.531 78.3627 165.531 86.1579 160.723 90.9658L163.551 93.7942ZM140.484 93.7942C146.854 100.164 157.181 100.164 163.551 93.7942L160.723 90.9658C155.915 95.7737 148.12 95.7737 143.312 90.9658L140.484 93.7942ZM99.4256 52.7363L140.484 93.7942L143.312 90.9658L102.254 49.9078L99.4256 52.7363ZM98.8401 51.2872L95.3978 248.871L99.3972 248.941L102.84 51.3569L98.8401 51.2872ZM95.3978 248.871C95.2547 257.089 88.4574 263.886 80.2401 264.029L80.3098 268.028C90.6817 267.848 99.2165 259.313 99.3972 248.941L95.3978 248.871ZM80.2401 264.029C72.0772 264.171 65.5963 257.69 65.7385 249.527L61.7391 249.458C61.5574 259.884 69.8835 268.21 80.3098 268.028L80.2401 264.029ZM65.7385 249.527L69.1808 51.9433L65.1814 51.8737L61.7391 249.458L65.7385 249.527ZM25.376 96.542L68.5953 53.3227L65.7669 50.4943L22.5475 93.7136L25.376 96.542ZM3.00129 96.542C9.17989 102.721 19.1974 102.721 25.376 96.542L22.5475 93.7136C17.931 98.3301 10.4462 98.3301 5.82972 93.7136L3.00129 96.542ZM3.0013 74.1673C-3.1773 80.3459 -3.1773 90.3634 3.00129 96.542L5.82972 93.7136C1.21322 89.0971 1.21322 81.6123 5.82972 76.9958L3.0013 74.1673ZM73.4629 3.70573L3.0013 74.1673L5.82972 76.9958L76.2913 6.53416L73.4629 3.70573ZM73.8095 3.35916L73.4629 3.70573L76.2913 6.53416L76.6379 6.18758L73.8095 3.35916Z" fill="white" mask="url(#path-1-inside-1_443_57)"/>
</svg>
