<svg width="175" height="28" viewBox="0 0 175 28" fill="none" xmlns="http://www.w3.org/2000/svg">
<path d="M35.389 9.277V9.462H34.501C34.5257 9.58533 34.538 9.70867 34.538 9.832C34.538 9.95533 34.538 10.0787 34.538 10.202H28.063C28.063 10.5227 27.9027 10.7693 27.582 10.942C27.434 10.9913 27.323 11.016 27.249 11.016H19.701C19.6024 11.016 19.5037 11.016 19.405 11.016C19.3064 10.9913 19.2077 10.9667 19.109 10.942H13.078V11.127H16.334C16.3094 11.2503 16.297 11.3737 16.297 11.497C16.297 11.6203 16.297 11.7437 16.297 11.867H15.002C14.9774 11.9163 14.965 11.978 14.965 12.052C14.965 12.126 14.965 12.1877 14.965 12.237H15.076V12.607H14.521V13.347H16.297V13.532H10.303V13.902H12.19V14.642H16.001V14.827H14.447V15.012H13.448V15.752H16.297C16.3217 15.8507 16.334 15.9493 16.334 16.048C16.334 16.122 16.334 16.2083 16.334 16.307H17.37V16.492H12.597V16.862H11.524V17.047H16.334V17.084H23.734C24.2027 17.084 24.474 17.3183 24.548 17.787H30.024V18.342H29.765L29.691 19.082H29.284L29.247 19.452H30.209C30.209 19.526 30.1967 19.5877 30.172 19.637H29.95C29.9254 19.6863 29.913 19.748 29.913 19.822H31.134L31.023 20.377H29.876C29.876 20.4017 29.8637 20.4263 29.839 20.451C29.839 20.4757 29.839 20.5127 29.839 20.562H29.543C29.5184 20.6607 29.4814 20.7593 29.432 20.858C29.4074 20.932 29.3827 21.0183 29.358 21.117H29.802C29.802 21.1417 29.7774 21.2033 29.728 21.302H28.988C28.9387 21.4253 28.877 21.5487 28.803 21.672C28.7537 21.7953 28.692 21.9187 28.618 22.042H29.358L29.025 22.597H29.358L28.988 23.152H28.766C28.6674 23.2753 28.5564 23.3987 28.433 23.522C28.3344 23.6453 28.2234 23.7687 28.1 23.892H27.804C27.7794 23.9167 27.7547 23.9413 27.73 23.966C27.7054 23.9907 27.6684 24.0277 27.619 24.077H26.028L25.843 24.262H33.28C33.132 24.3853 32.984 24.5087 32.836 24.632C32.688 24.7553 32.5277 24.8787 32.355 25.002H31.948C31.7014 25.1747 31.4054 25.3597 31.06 25.557H23.253C23.0064 25.705 22.7474 25.8407 22.476 25.964C22.2047 26.0627 21.9334 26.1737 21.662 26.297H27.767C27.693 26.3217 27.6067 26.3463 27.508 26.371C27.434 26.3957 27.3477 26.4327 27.249 26.482H25.769C25.6704 26.5067 25.5717 26.5313 25.473 26.556C25.3744 26.5807 25.2757 26.6177 25.177 26.667H22.513C21.625 26.9137 20.7124 27.0987 19.775 27.222H20.367C19.9724 27.2713 19.5654 27.3083 19.146 27.333C18.7267 27.3577 18.3074 27.37 17.888 27.37C17.4194 27.37 16.963 27.3577 16.519 27.333C16.0997 27.3083 15.6804 27.2713 15.261 27.222H14.669C13.6824 27.0987 12.7697 26.9137 11.931 26.667H14.595C14.4964 26.6177 14.3977 26.5807 14.299 26.556C14.225 26.5313 14.1387 26.5067 14.04 26.482H15.557L15.039 26.297H8.93402C8.68736 26.1737 8.42836 26.0627 8.15702 25.964C7.91036 25.8407 7.66369 25.705 7.41702 25.557H15.261C15.113 25.4583 14.965 25.372 14.817 25.298C14.669 25.1993 14.5334 25.1007 14.41 25.002H14.817C14.521 24.78 14.2374 24.5333 13.966 24.262H6.49202C6.46736 24.2127 6.44269 24.1757 6.41802 24.151C6.39336 24.1263 6.35636 24.1017 6.30702 24.077H7.93502C7.91036 24.0277 7.87336 23.9907 7.82402 23.966C7.79936 23.9413 7.77469 23.9167 7.75002 23.892H8.04602C7.82402 23.6453 7.61436 23.3987 7.41702 23.152H7.63902L7.30602 22.597H6.97302L6.64002 22.042H5.90002L5.56702 21.302H6.34402L6.27002 21.117H5.78902C5.76436 21.0183 5.73969 20.932 5.71502 20.858C5.69036 20.7593 5.65336 20.6607 5.60402 20.562H5.90002L5.82602 20.377H6.97302C6.94836 20.2783 6.92369 20.192 6.89902 20.118C6.87436 20.0193 6.84969 19.9207 6.82502 19.822H6.23302C6.20836 19.7727 6.19602 19.711 6.19602 19.637H5.56702C5.54236 19.5877 5.53002 19.526 5.53002 19.452H5.56702C5.56702 19.3533 5.54236 19.23 5.49302 19.082H3.38402L3.27302 18.342H6.12202C6.09736 18.2433 6.08502 18.157 6.08502 18.083C6.08502 17.9843 6.07269 17.8857 6.04802 17.787H6.75102C6.75102 17.713 6.75102 17.639 6.75102 17.565C6.75102 17.491 6.73869 17.417 6.71402 17.343V17.047H1.90402V16.862H2.97702V16.492H7.75002V16.307H6.71402C6.71402 16.2083 6.70169 16.122 6.67702 16.048C6.67702 15.9493 6.67702 15.8507 6.67702 15.752H3.82802V15.012H4.82702V14.827H6.38102V14.642H2.57002V13.902H0.683023V13.532H6.67702V13.347H4.90102V12.607H5.45602V12.237H5.34502V11.867H6.67702V11.127H3.45802V10.942H10.562V10.757C10.5867 10.6583 10.599 10.572 10.599 10.498C10.599 10.3993 10.599 10.3007 10.599 10.202H8.63802C8.63802 10.0787 8.63802 9.95533 8.63802 9.832C8.66269 9.70867 8.68736 9.58533 8.71202 9.462H9.89602C9.92069 9.41267 9.93302 9.351 9.93302 9.277H2.27402C2.29869 9.22767 2.31102 9.166 2.31102 9.092C2.31102 9.018 2.32336 8.95633 2.34802 8.907H9.08202L9.26702 8.167H7.75002L7.86102 7.797H5.38202L5.45602 7.612H6.27002C6.29469 7.56267 6.31936 7.501 6.34402 7.427C6.36869 7.353 6.39336 7.29133 6.41802 7.242H6.01102L6.15902 6.872H6.34402C6.39336 6.77333 6.44269 6.687 6.49202 6.613C6.54136 6.51433 6.57836 6.41567 6.60302 6.317H6.64002L6.97302 5.762H6.86202C6.91136 5.66333 6.96069 5.577 7.01002 5.503C7.08402 5.40433 7.15802 5.30567 7.23202 5.207H6.93602C7.03469 5.08367 7.13336 4.96033 7.23202 4.837C7.33069 4.689 7.42936 4.56567 7.52802 4.467H7.19502C7.21969 4.41767 7.24436 4.38067 7.26902 4.356C7.29369 4.33133 7.31836 4.30667 7.34302 4.282H6.97302L7.15802 4.097H7.08402C7.13336 4.04767 7.17036 4.01066 7.19502 3.986C7.21969 3.96133 7.24436 3.93667 7.26902 3.912H6.60302C6.65236 3.86267 6.71402 3.801 6.78802 3.727C6.86202 3.653 6.93602 3.59133 7.01002 3.542H7.89802C8.02136 3.44333 8.14469 3.357 8.26802 3.283C8.39136 3.18433 8.51469 3.08567 8.63802 2.987H8.23102L8.52702 2.802H7.89802C7.94736 2.75267 7.99669 2.71567 8.04602 2.691C8.09536 2.66633 8.14469 2.64166 8.19402 2.617H10.118C10.2907 2.51833 10.4634 2.432 10.636 2.358C10.8087 2.25933 10.9814 2.16067 11.154 2.062H11.043C11.191 1.988 11.339 1.92633 11.487 1.877C11.635 1.803 11.783 1.74133 11.931 1.692H12.634C12.708 1.64267 12.782 1.60567 12.856 1.581C12.9547 1.55633 13.0534 1.53167 13.152 1.507H12.042C12.782 1.23567 13.5714 1.05066 14.41 0.951998H15.409C16.371 0.803998 17.3824 0.729999 18.443 0.729999C19.479 0.729999 20.478 0.803998 21.44 0.951998H20.478C21.292 1.05066 22.106 1.23567 22.92 1.507H24.03C24.1287 1.53167 24.215 1.55633 24.289 1.581C24.3877 1.60567 24.4864 1.64267 24.585 1.692H23.882C24.252 1.81533 24.5604 1.93867 24.807 2.062H24.918C25.1154 2.16067 25.3004 2.25933 25.473 2.358C25.6457 2.432 25.8184 2.51833 25.991 2.617H24.104C24.1534 2.64166 24.2027 2.66633 24.252 2.691C24.3014 2.71567 24.3507 2.75267 24.4 2.802H25.029C25.0784 2.82666 25.1277 2.85133 25.177 2.876C25.2264 2.90067 25.2634 2.93767 25.288 2.987H25.695L26.435 3.542H25.51L25.954 3.912H26.62L26.842 4.097H26.879L27.064 4.282H27.434L27.619 4.467H27.952C28.0507 4.56567 28.1494 4.689 28.248 4.837C28.3467 4.96033 28.4454 5.08367 28.544 5.207H28.803C28.877 5.30567 28.9387 5.40433 28.988 5.503C29.062 5.577 29.1237 5.66333 29.173 5.762H29.284C29.3334 5.86067 29.3827 5.95933 29.432 6.058C29.4814 6.132 29.5307 6.21833 29.58 6.317H29.506C29.5554 6.41567 29.6047 6.51433 29.654 6.613C29.7034 6.687 29.7404 6.77333 29.765 6.872H29.58L29.691 7.242H30.098L30.209 7.612H29.395C29.395 7.63667 29.395 7.66133 29.395 7.686C29.4197 7.71067 29.432 7.74767 29.432 7.797H31.911C31.911 7.89566 31.9357 8.019 31.985 8.167H28.618L28.729 8.907H30.875L30.912 9.277H35.389ZM18.406 8.167H21.033C20.6384 8.019 20.1944 7.945 19.701 7.945C19.2077 7.945 18.776 8.019 18.406 8.167ZM24.807 9.943C24.7824 9.84433 24.7577 9.758 24.733 9.684C24.7084 9.61 24.6714 9.536 24.622 9.462H25.51L25.399 9.277H20.959C20.9344 9.203 20.8974 9.14133 20.848 9.092C20.7987 9.018 20.7494 8.95633 20.7 8.907H12.301C12.2764 8.95633 12.2394 9.018 12.19 9.092C12.1654 9.14133 12.1284 9.203 12.079 9.277H19.738L19.664 9.462H18.48C18.4307 9.56067 18.3937 9.684 18.369 9.832C18.3444 9.95533 18.3197 10.0787 18.295 10.202H24.918L24.807 9.943ZM20.441 17.787H15.705L15.816 18.342H12.967C13.0164 18.49 13.0657 18.6257 13.115 18.749C13.1644 18.8477 13.226 18.9587 13.3 19.082H15.409C15.4584 19.156 15.5077 19.23 15.557 19.304C15.6064 19.3533 15.6557 19.4027 15.705 19.452H15.631L15.816 19.637H16.445C16.4944 19.6617 16.5437 19.6987 16.593 19.748C16.6424 19.7727 16.6917 19.7973 16.741 19.822H17.333C17.7524 20.044 18.258 20.155 18.85 20.155C19.442 20.155 19.9354 20.044 20.33 19.822H19.109L19.405 19.637H19.627L19.849 19.452H18.887C18.9364 19.4027 18.9857 19.3533 19.035 19.304C19.109 19.23 19.1584 19.156 19.183 19.082H19.59C19.738 18.86 19.8614 18.6133 19.96 18.342H20.219L20.293 18.157C20.3424 18.009 20.3917 17.8857 20.441 17.787ZM32.5548 2.062C32.5794 1.988 32.5918 1.92633 32.5918 1.877C32.6164 1.803 32.6411 1.74133 32.6658 1.692H28.5958C28.6451 1.618 28.6944 1.55633 28.7438 1.507C28.7931 1.433 28.8424 1.37133 28.8918 1.322H33.1838C33.3811 1.174 33.5908 1.1 33.8128 1.1H41.2128C41.4841 1.1 41.6938 1.174 41.8418 1.322H37.5498C37.5991 1.37133 37.6484 1.433 37.6978 1.507C37.7718 1.55633 37.8211 1.618 37.8458 1.692H41.8788C41.9281 1.84 41.9528 1.96333 41.9528 2.062H44.0248C44.0494 2.062 44.0618 2.07433 44.0618 2.099V2.432H39.0668V3.172H41.1388V3.727H40.9168V4.467H39.5848V5.207H42.5818V5.392H42.8038V6.132H42.9518V6.872H42.6928V7.612H42.5078V8.537H43.1368V9.277H42.4338V10.017H42.5818V10.202H45.2088V10.942H46.5778V11.312H40.8798V11.682H42.7668V12.422H41.2128V13.162H42.5448V13.532H42.8038V14.087H47.7618V14.457H51.2028V15.197H41.8048V14.457H38.3638V14.087H33.4058V13.532H33.1468V13.162H31.8148V12.422H33.3688V11.682H31.4818V11.312H37.1798V10.942H35.8108V10.202H33.1838V10.017H33.0358V9.277H33.7388V8.537H33.1098V7.612H33.2948V6.872H33.5538V6.132H33.4058V5.392H33.1838V5.207H30.1868V4.467H31.5188V3.727H31.7408V3.172H29.6688V2.432H34.6638V2.062H32.5548ZM57.1598 22.042H47.0588V22.227H47.7988V22.782H53.0528V22.967H51.4248V23.707H54.0148V24.262H54.3848V24.447H54.1258V24.632H54.0148V25.372H54.0888V25.927H53.9408V26.112H53.7558C53.7311 26.1613 53.7188 26.223 53.7188 26.297H54.1258C54.0518 26.5437 53.9161 26.7287 53.7188 26.852H53.3118C53.1884 26.9507 53.0158 27 52.7938 27H34.1458C33.9238 27 33.7511 26.9507 33.6278 26.852H33.9978C33.7758 26.7287 33.6278 26.5437 33.5538 26.297H33.1468C33.1468 26.2477 33.1344 26.2107 33.1098 26.186C33.1098 26.1613 33.1098 26.1367 33.1098 26.112H33.2948V25.927H33.4428V25.372H33.3688V24.632H33.4798V24.447H33.7388V24.262H33.3688V23.707H30.7788V22.967H32.4068V22.782H27.1528V22.227H26.4128V22.042H36.5138V21.487H32.4068V20.932H36.4028V20.747H27.6708V20.192H28.9288V20.007H33.7388V19.822H32.0368V19.267H34.9228V18.527H31.9998V18.157H34.4048V17.972H33.2948V17.417H34.3678V17.047H32.9988V16.677H36.2178V16.122H37.1428V15.752H32.0738V15.197H41.4718V15.752H46.5408V16.122H45.6158V16.677H42.3968V17.047H43.7658V17.417H42.6928V17.972H43.8028V18.157H41.3978V18.527H44.3208V19.267H41.4348V19.415H51.6838C52.0291 19.415 52.3004 19.5507 52.4978 19.822H54.1998L54.3108 20.007H49.5008L49.5748 20.192H48.2798C48.3044 20.2413 48.3168 20.3153 48.3168 20.414V20.747H57.0488V20.932H53.0528V21.487H57.1598V22.042ZM82.7999 25.002L83.0589 25.742H82.4299L82.5039 25.927C82.5039 25.9517 82.5039 25.9887 82.5039 26.038C82.5286 26.0627 82.5409 26.0873 82.5409 26.112H82.3189V26.186C82.3189 26.482 82.2079 26.704 81.9859 26.852H82.0229C81.8996 26.9507 81.7392 27 81.5419 27H74.6969C74.5242 27 74.3762 26.9877 74.2529 26.963C74.1542 26.9137 74.0432 26.8767 73.9199 26.852C73.7226 26.7533 73.5746 26.6423 73.4759 26.519C73.3772 26.371 73.3032 26.2353 73.2539 26.112H73.4389V26.075L73.3649 25.927L73.2909 25.742H73.9199L73.6609 25.002H72.9579L72.8469 24.632H74.3639L74.1049 23.892H73.6609L73.5499 23.633H65.5949L65.5209 23.892H65.0769L64.8179 24.632H64.4109L64.2629 25.002H64.0409L63.7819 25.742H63.8189L63.7449 25.927L63.7079 26.075L63.6709 26.112H63.4859C63.4366 26.2353 63.3626 26.371 63.2639 26.519C63.1652 26.6423 63.0172 26.7533 62.8199 26.852H63.9299C63.8312 26.8767 63.7202 26.9137 63.5969 26.963C63.4736 26.9877 63.3256 27 63.1529 27H56.3079C56.1106 27 55.9626 26.9507 55.8639 26.852H54.7539C54.5072 26.6793 54.3839 26.4573 54.3839 26.186V26.112H54.6059C54.6059 26.038 54.6182 25.9763 54.6429 25.927L54.6799 25.742H54.6429L54.9019 25.002H55.1239L55.2719 24.632H55.6789L55.9379 23.892H56.3449L56.6039 23.152H55.1609L55.3089 22.782H55.1979L55.3829 22.227H55.7529L55.8269 22.042H55.0129L55.2719 21.302H56.5299L56.6409 20.932H55.4939L55.5679 20.747H55.7529L56.0119 20.007H55.9009L56.0859 19.452H56.2339L56.4929 18.712H56.9739L57.1589 18.157L57.2329 17.972H59.0829L59.1569 17.787H59.0459L59.2309 17.232H57.1589L57.4179 16.492H58.0839L58.1579 16.307H57.7509L57.8249 16.122H59.0089L59.2679 15.382H57.8249L57.9729 15.012H58.5279L58.7869 14.272H58.4539L58.6389 13.717H59.0459L59.3049 12.977H59.1939L59.2679 12.792H58.4169L58.5649 12.422H59.3789L59.5639 11.867H59.1939L59.2309 11.682H59.8969L60.1559 10.942H59.3419L59.5269 10.387H59.1199L59.2309 10.017H56.6779L56.7889 9.647H56.3079L56.5669 8.907H56.0859L56.3079 8.352H57.7509L58.0099 7.612H61.7099L61.8949 7.057H60.1189L60.2669 6.687H61.6359L61.8949 5.947H60.6739L60.8589 5.392H61.6359L61.8949 4.652H61.7839L62.0429 3.912H61.0069L61.0439 3.727H64.5959L64.8549 2.987H64.7439L64.8179 2.802H63.5229L63.6709 2.321L63.7819 2.062H64.1519L64.3739 1.692H64.2629C64.3862 1.51933 64.5589 1.38366 64.7809 1.285C65.0029 1.16166 65.2742 1.1 65.5949 1.1H73.6239C73.9446 1.1 74.2159 1.16166 74.4379 1.285C74.6599 1.38366 74.8326 1.51933 74.9559 1.692H75.1039L75.3259 2.062H74.9559C75.0052 2.16067 75.0299 2.247 75.0299 2.321L75.2149 2.802H76.5099L76.5469 2.987H76.6579L76.9169 3.727H73.4019L73.4759 3.912H74.5119L74.7709 4.652H74.8819L75.1409 5.392H74.3639L74.5489 5.947H75.7699L76.0289 6.687H74.6599L74.8079 7.057H76.5839L76.7689 7.612H73.0689L73.3279 8.352H71.8849L72.0699 8.907H72.5139L72.7729 9.647H71.3299L71.4779 10.017H77.3609L77.4719 10.387H77.1759L77.3609 10.942H76.6209L76.8799 11.682H75.9919L76.0289 11.867H77.3609L77.5459 12.422H77.5829L77.7309 12.792H76.5099L76.5839 12.977H77.7679L78.0269 13.717H78.4339L78.6189 14.272H78.5079L78.7669 15.012H79.3589L79.5069 15.382H78.4339L78.6929 16.122H79.4329L79.4699 16.307H79.2849L79.3589 16.492H78.6929L78.9149 17.232H81.0239L81.2089 17.787H81.3199L81.3939 17.972H79.5069L79.5809 18.157H79.6179L79.8029 18.712H79.3219L79.5809 19.452H79.3959L79.6179 20.007H79.7289L79.9879 20.747H79.8029L79.8769 20.932H81.0239L81.1719 21.302H79.8769L80.1359 22.042H80.9499L81.0239 22.227H80.6539L80.8759 22.782H80.9499L81.0979 23.152H82.5409L82.7999 23.892H83.2439L83.5029 24.632H81.9859L82.0969 25.002H82.7999ZM67.3339 10.387H67.7779L67.5929 10.942H69.1099L68.9249 10.387H69.2209L69.1099 10.017H67.4449L67.3339 10.387ZM68.5549 11.682L68.3699 11.053L68.1849 11.682H68.5549ZM66.3349 16.122L66.2609 16.307H66.6679L66.6309 16.418H70.8119L70.7749 16.307H70.9599L70.9229 16.122H70.1829L69.9609 15.382H71.0339L70.9229 15.012H70.2939L70.0719 14.272H70.1829L70.0349 13.717H69.6279L69.4059 12.977H68.2219L68.1479 12.792H69.3689L69.2579 12.422H69.2209L69.0359 11.867H67.8519L67.7039 12.422H66.8899L66.7789 12.792H67.5929L67.5559 12.977H67.6669L67.4449 13.717H67.0379L66.8529 14.272H67.1859L66.9639 15.012H66.4089L66.2979 15.382H67.7409L67.5189 16.122H66.3349ZM107.956 12.237H106.143C106.118 12.3357 106.093 12.4343 106.069 12.533C106.044 12.607 106.007 12.6933 105.958 12.792H106.994L106.883 13.162H105.995C105.921 13.384 105.822 13.6307 105.699 13.902H105.144C105.045 14.1487 104.909 14.3953 104.737 14.642H104.811C104.712 14.7653 104.626 14.8887 104.552 15.012C104.478 15.1353 104.391 15.2587 104.293 15.382H108.289L107.808 15.937H104.515C104.416 16.0603 104.293 16.1837 104.145 16.307C103.997 16.4303 103.861 16.5537 103.738 16.677H104.219C104.12 16.7757 103.997 16.8743 103.849 16.973C103.725 17.047 103.602 17.1333 103.479 17.232H104.7L104.552 17.343L104.885 17.972H103.997L104.404 18.712H104.515L104.626 18.897H104.589L104.959 19.637H105.329L105.551 20.007H102.702L102.998 20.562H105.588L105.81 20.932H104.996L105.292 21.487H108.955L109.362 22.227H106.92L107.216 22.782H106.069L106.661 23.892H106.92L107.142 24.262H107.031L107.142 24.447H105.403L105.81 25.187L105.884 25.372H104.737L104.922 25.779C104.996 25.8777 105.033 25.9887 105.033 26.112H105.81V26.186C105.81 26.4573 105.699 26.6793 105.477 26.852H106.476C106.352 26.9507 106.192 27 105.995 27H98.4096C98.2616 27 98.1259 26.9877 98.0026 26.963C97.9039 26.9137 97.7929 26.8767 97.6696 26.852H96.6706C96.4732 26.7533 96.3006 26.63 96.1526 26.482C96.0292 26.334 95.9306 26.2107 95.8566 26.112H95.1166L95.0426 26.001L94.7836 25.372H95.9676L95.8566 25.187H92.3416V25.372H90.4546V26.112H93.4516C93.4022 26.4573 93.2419 26.704 92.9706 26.852H92.7116C92.5389 26.9507 92.3539 27 92.1566 27H84.9046C84.6826 27 84.5099 26.9507 84.3866 26.852H84.6826C84.4112 26.704 84.2509 26.4573 84.2016 26.112H81.2416C81.2416 26.0873 81.2416 26.075 81.2416 26.075C81.2169 26.0503 81.2046 26.0257 81.2046 26.001V25.372H83.0916V25.187H86.7916V24.447H82.8326V24.262H85.1636V23.892H84.3866V23.337H85.6816V22.782H83.5726V22.227H86.4216V21.487H84.7936V20.932H84.7566V20.747H84.5346V20.562H83.5356V20.007H84.7936V19.637H84.4606V18.897H84.4976V18.712H84.3866V17.972H85.2746V17.232H84.0166V16.677H83.5356V15.937H86.7916V15.382H82.7956V14.642H82.7216V13.902H83.2766V13.162H84.1276V12.792H83.0916V12.237H84.9046V11.867H87.5686V11.497H83.9056V11.312H84.0906V11.127H84.4236V10.942H84.4606V10.572H84.3866V10.017H84.5346V9.277H84.3496V8.907H84.5346V8.352H84.3866V8.167H84.4976V7.797H84.4606V7.612H84.3126V7.427H84.6456V6.872H84.9416V6.317H83.2026V5.577H83.6096V4.837H83.3876V4.282H84.3866V3.727H84.7566V3.172H84.0906V2.802H84.3496V2.617H84.4236V2.062H84.4976C84.4976 1.79066 84.6086 1.544 84.8306 1.322H86.8286C86.9766 1.174 87.1862 1.1 87.4576 1.1H98.4096C99.4702 1.1 100.457 1.174 101.37 1.322H99.4086C100.395 1.47 101.333 1.71667 102.221 2.062H102.147C102.566 2.21 102.973 2.395 103.368 2.617H103.294L103.627 2.802H103.331C103.454 2.85133 103.553 2.913 103.627 2.987C103.725 3.061 103.824 3.12267 103.923 3.172H104.589C104.712 3.27066 104.835 3.36933 104.959 3.468C105.082 3.542 105.193 3.62833 105.292 3.727H104.922C105.045 3.82567 105.144 3.92433 105.218 4.023C105.316 4.097 105.415 4.18333 105.514 4.282H104.515C104.613 4.38067 104.7 4.47933 104.774 4.578C104.848 4.652 104.922 4.73833 104.996 4.837H105.181C105.378 5.08367 105.551 5.33033 105.699 5.577H105.329C105.403 5.67566 105.464 5.799 105.514 5.947C105.588 6.07033 105.662 6.19367 105.736 6.317H107.475L107.697 6.872H107.401C107.425 6.97067 107.45 7.06933 107.475 7.168C107.524 7.242 107.561 7.32833 107.586 7.427H107.216L107.29 7.612H107.438C107.462 7.66133 107.475 7.723 107.475 7.797L107.586 8.167H107.697C107.697 8.241 107.709 8.30267 107.734 8.352H107.771C107.795 8.45067 107.808 8.54933 107.808 8.648C107.832 8.722 107.845 8.80833 107.845 8.907H107.364C107.364 8.95633 107.364 9.018 107.364 9.092C107.364 9.166 107.376 9.22767 107.401 9.277H107.623C107.623 9.40033 107.623 9.52367 107.623 9.647C107.647 9.77033 107.66 9.89367 107.66 10.017V10.387H107.882V10.572H107.66V10.942H107.29C107.29 10.9667 107.277 10.9913 107.253 11.016C107.253 11.0407 107.253 11.0777 107.253 11.127H107.623C107.623 11.1517 107.61 11.1763 107.586 11.201C107.586 11.2257 107.586 11.2627 107.586 11.312H109.325C109.3 11.3613 109.288 11.423 109.288 11.497H109.769L109.732 11.867H108.03C107.98 12.015 107.956 12.1383 107.956 12.237ZM93.1556 11.497H96.8186V11.867H94.1546V11.904H96.8556C97.0282 11.904 97.1639 11.8917 97.2626 11.867H98.9646C99.2359 11.793 99.4826 11.6697 99.7046 11.497H99.1866L99.3716 11.312H97.6326C97.7066 11.238 97.7559 11.1763 97.7806 11.127H97.4106L97.5216 10.942H97.8916L98.0026 10.572H98.1876C98.2122 10.5227 98.2246 10.461 98.2246 10.387H98.0026L98.0396 10.017C98.0396 9.77033 98.0026 9.52367 97.9286 9.277H97.7066C97.6819 9.22767 97.6572 9.166 97.6326 9.092C97.6326 9.018 97.6079 8.95633 97.5586 8.907H98.0766C97.9779 8.70967 97.8422 8.52467 97.6696 8.352H97.5956C97.5216 8.278 97.4352 8.21633 97.3366 8.167H97.2256C96.9789 8.04367 96.7199 7.982 96.4486 7.982H93.7476V8.167H93.6366V8.352H93.7846V8.907H93.5996V9.277H93.7846V10.017H93.6366V10.572H93.7106V10.942H93.6736V11.127H93.3406V11.312H93.1556V11.497ZM96.0786 20.007L95.9306 19.637H95.5236L95.2276 18.934H93.7106V19.637H94.0436V20.007H96.0786ZM92.7856 20.007V20.562H93.4886L93.2666 20.007H92.7856ZM96.1526 20.747L96.0786 20.562H93.7846V20.747H94.0066V20.932H94.0436V21.487H95.6716V22.227H92.8226V22.782H94.9316V23.337H93.6366V23.892H94.4136V24.262H92.0826V24.447H97.2996L97.1886 24.262H97.2996L97.1146 23.892H96.8186L96.5966 23.337L96.3376 22.782H97.5216L97.2626 22.227H99.6676L99.3346 21.487H95.6716L95.4496 20.932H96.2636L96.1526 20.747ZM125.223 7.427H119.192V8.167H121.597V8.907H124.779V9.462H121.19V9.647H121.634V10.387H120.709V10.572H120.635V10.757H119.71V11.497H121.449V11.682H121.523V11.867H121.116V12.422H120.857V12.607H122.078V13.347H119.118V14.087H120.191V14.642H120.783V15.382H120.857V16.122H120.561V17.047H120.894V17.417H120.672V17.972H120.635V18.157H120.339V18.897H120.672V19.267H120.635V21.487H120.672V22.227H121.301V22.967H120.783V23.337H120.635V23.707H121.079V24.447H120.45V24.632H121.375V25.002H121.708V25.187H121.412V25.742H121.264V26.001C121.264 26.0503 121.251 26.0997 121.227 26.149C121.227 26.1983 121.214 26.2477 121.19 26.297H120.265C120.24 26.4203 120.166 26.5437 120.043 26.667H121.079C120.98 26.7657 120.906 26.8273 120.857 26.852H118.748C118.624 26.9507 118.452 27 118.23 27H110.682C110.46 27 110.287 26.9507 110.164 26.852H112.273C112.174 26.8273 112.1 26.7657 112.051 26.667H111.015C110.891 26.5437 110.817 26.4203 110.793 26.297H111.755C111.73 26.223 111.718 26.1243 111.718 26.001V25.742H111.866V25.187H112.162V25.002H111.829V24.632H110.904V24.447H111.533V23.707H111.089V23.337H111.237V22.967H111.755V22.227H111.126V21.487H111.089V19.267H111.126V18.897H110.793V18.157H111.089V17.972H111.126V17.417H111.348V17.047H111.015V16.122H111.311V15.382H111.237V14.642H110.645V14.087H109.572V13.347H112.532V12.607H111.311V12.422H111.57V11.867H111.977V11.682H111.903V11.497H110.164V10.757H111.089V10.572H111.163V10.387H112.088V9.647H111.644V9.462H115.233V8.907H112.051V8.167H109.646V7.427H115.677V7.242H111.903V6.687H111.866V6.132H111.2V5.947H113.457V5.577H111.755V4.837H111.903V4.282H110.867V3.542H111.052V3.172H110.941V2.802H111.237V2.617H110.904V2.099C110.904 1.97567 110.928 1.84 110.978 1.692H111.163C111.335 1.29733 111.644 1.1 112.088 1.1H119.636C120.08 1.1 120.388 1.29733 120.561 1.692H120.376C120.425 1.84 120.45 1.97567 120.45 2.099V2.617H120.783V2.802H120.487V3.172H120.598V3.542H120.413V4.282H121.449V4.837H121.301V5.577H123.003V5.947H120.746V6.132H121.412V6.687H121.449V7.242H125.223V7.427ZM149.131 4.467H142.249V5.207H144.876V5.762H147.725V6.317H147.651V6.872H148.724V7.612H144.691V7.797H143.914V8.056C143.914 8.22867 143.877 8.389 143.803 8.537H146.43C146.257 8.88233 145.973 9.055 145.579 9.055H139.437V9.092H139.807V9.832H139.881V10.572H139.696V11.312H139.215V11.867H141.065V12.237H139.511V12.792H138.697V13.532H140.103V13.902H139.844V14.642H139.585V15.382H139.141V16.122H138.734V16.677H140.103V17.232H139.548V17.972H139.77V18.157H140.029V18.527H141.879V19.082H140.621V19.822H141.176V20.562H139.622V21.302H140.251V21.672H140.51V22.227H141.102V22.967H140.88V23.522H139.918V24.077H139.807V24.447H139.77V25.002H140.177V25.557H139.844V26.001C139.844 26.1243 139.831 26.223 139.807 26.297H139.437C139.363 26.5437 139.227 26.7287 139.03 26.852H139.104C138.98 26.9507 138.808 27 138.586 27H131.186C130.988 27 130.803 26.9507 130.631 26.852H130.557C130.384 26.7287 130.248 26.5437 130.15 26.297H130.483C130.458 26.223 130.446 26.1243 130.446 26.001V25.557H130.779V25.002H130.372V24.447H130.409V24.077H130.52V23.522H131.482V22.967H131.704V22.227H131.112V21.672H130.853V21.302H130.224V20.562H131.778V19.822H131.223V19.082H132.481V18.527H130.631V18.157H130.372V17.972H130.15V17.232H130.705V16.677H129.336V16.122H129.743V15.382H130.187V14.642H130.446V13.902H130.705V13.532H129.299V12.792H130.113V12.237H131.667V11.867H129.817V11.312H130.298V10.572H130.483V9.832H130.409V9.092H130.039V9.055H123.897C123.527 9.055 123.231 8.88233 123.009 8.537H120.382C120.357 8.463 120.332 8.389 120.308 8.315C120.258 8.241 120.234 8.15467 120.234 8.056V7.797H121.011V7.612H125.044V6.872H123.971V6.317H124.045V5.762H121.196V5.207H118.569V4.467H125.451V3.912H121.603V3.172H122.343V2.432H123.305V2.247H123.86V2.099C123.86 1.85233 123.934 1.655 124.082 1.507H123.268C123.465 1.23567 123.736 1.1 124.082 1.1H145.764C146.109 1.1 146.38 1.23567 146.578 1.507H147.355C147.478 1.67967 147.54 1.877 147.54 2.099V2.247H146.985V2.432H146.023V3.172H145.283V3.912H149.131V4.467ZM172.989 1.507C173.063 1.60567 173.1 1.729 173.1 1.877H174.395V1.914C174.395 2.03733 174.371 2.14833 174.321 2.247L174.21 2.432H172.841L172.471 3.172H172.767L172.582 3.542H173.174L173.063 3.727H171.879L171.62 4.282H171.842L171.731 4.467H171.287L171.102 4.837H173.581L173.211 5.577H171.028L170.954 5.762H170.473L170.177 6.317H171.213L170.843 7.057H171.62L171.509 7.242H171.25L171.139 7.427H170.917L170.547 8.167H170.584L170.399 8.537H170.954L170.843 8.722H170.473L170.362 8.907H171.176L170.991 9.277H172.36L172.175 9.647H168.771L168.586 10.017H170.917L170.621 10.572H170.14L169.881 11.127H168.956L168.882 11.312H169.104L168.919 11.682H168.697L168.623 11.867H169.4L169.215 12.237H169.585L169.326 12.792H168.623L168.549 12.977H168.364L167.994 13.717H167.883L167.772 13.902H168.697L168.512 14.272H169.104L168.845 14.827H166.625L166.44 15.197H167.698L167.402 15.752H166.884L166.773 15.937L166.477 16.492H167.217L167.106 16.677H168.475L168.401 16.862L168.216 17.232H165.219L165.034 17.602H168.808L168.438 18.342H166.403L166.218 18.712V19.082H165.182V19.452H165.367V20.192H166.329V20.932H162.111V21.672H166.44V22.227H164.96V22.782H165.367V22.967H165.885V23.707H166.181V23.892H165.219V24.262H165.922V25.002H163.258V25.742H162.666V26.112H165.256C165.256 26.4327 165.108 26.6793 164.812 26.852H164.368C164.245 26.9507 164.072 27 163.85 27H156.598C156.376 27 156.204 26.9507 156.08 26.852H156.487C156.241 26.6793 156.093 26.4327 156.043 26.112H153.416V25.742H154.008V25.002H156.672V24.262H155.969V23.892H156.931V23.707H156.635V22.967H156.117V22.782H155.71V22.227H157.19V21.672H152.861V20.932H157.079V20.192H156.117V19.452H155.932V19.082H156.968V18.712L156.783 18.342H158.818L158.448 17.602H154.674L154.489 17.232H157.449L157.264 16.862L157.19 16.677H155.821L155.71 16.492H154.97L154.711 15.937H154.748L154.637 15.752H155.155L154.896 15.197H153.638L153.453 14.827H155.673L155.377 14.272H154.785L154.6 13.902H153.675L153.564 13.717H153.712L153.342 12.977H153.49L153.416 12.792H154.082L153.786 12.237H153.416L153.231 11.867H152.454L152.343 11.682H152.565L152.38 11.312H152.158L152.047 11.127H152.972L152.676 10.572H153.157L152.861 10.017H150.53L150.345 9.647H153.749L153.564 9.277H150.16L149.975 8.907H150.715L150.641 8.722H152.343L152.269 8.537H152.454L152.269 8.167H150.974L150.604 7.427H150.789L150.678 7.242H150.382L150.271 7.057H150.234L149.864 6.317H149.013L148.717 5.762H149.161L149.087 5.577H145.905L145.535 4.837H146.386L146.201 4.467H148.458L148.384 4.282H149.309L149.013 3.727H147.496L147.422 3.542H149.457L149.272 3.172H147.089L146.682 2.432H147.903L147.792 2.247C147.743 2.14833 147.718 2.03733 147.718 1.914V1.877H148.717C148.717 1.803 148.73 1.74133 148.754 1.692C148.779 1.618 148.804 1.55633 148.828 1.507H149.494C149.642 1.23567 149.877 1.1 150.197 1.1H157.153C157.425 1.1 157.647 1.137 157.819 1.211C158.017 1.285 158.177 1.38367 158.3 1.507H157.634C157.708 1.55633 157.77 1.618 157.819 1.692C157.893 1.766 157.943 1.82767 157.967 1.877H156.968C157.018 1.97567 157.042 2.025 157.042 2.025L157.227 2.432H156.043L156.413 3.172H158.633L158.818 3.542H156.746L156.857 3.727H158.374L158.633 4.282H157.708L157.819 4.467H155.562L155.747 4.837H154.859L155.229 5.577H158.411L158.522 5.762H158.041L158.337 6.317H159.188L159.558 7.057H159.595L159.706 7.242H160.002L160.076 7.427H159.891L160.261 8.167H161.223L161.593 7.427H161.815L161.926 7.242H162.222L162.296 7.057H161.519L161.889 6.317H160.853L161.112 5.762H161.63L161.704 5.577H163.887L164.257 4.837H161.741L161.926 4.467H162.407L162.481 4.282H162.259L162.518 3.727H163.702L163.813 3.542H163.221L163.406 3.172H163.11L163.48 2.432H164.849L165.071 2.025C165.071 2.025 165.096 1.97567 165.145 1.877H163.85C163.9 1.82767 163.949 1.766 163.998 1.692C164.048 1.618 164.109 1.55633 164.183 1.507H166.07C166.194 1.38367 166.354 1.285 166.551 1.211C166.749 1.137 166.971 1.1 167.217 1.1H174.173C174.494 1.1 174.728 1.23567 174.876 1.507H172.989ZM161.704 9.277L161.889 8.907H161.075L161.149 8.722H159.928L160.039 8.907H159.262L159.447 9.277H161.704Z" fill="white"/>
</svg>
