<svg width="115" height="28" viewBox="0 0 115 28" fill="none" xmlns="http://www.w3.org/2000/svg">
<path d="M35.4691 9.277V9.462H34.5811C34.6058 9.58533 34.6181 9.70867 34.6181 9.832C34.6181 9.95533 34.6181 10.0787 34.6181 10.202H28.1431C28.1431 10.5227 27.9828 10.7693 27.6621 10.942C27.5141 10.9913 27.4031 11.016 27.3291 11.016H19.7811C19.6824 11.016 19.5838 11.016 19.4851 11.016C19.3864 10.9913 19.2878 10.9667 19.1891 10.942H13.1581V11.127H16.4141C16.3894 11.2503 16.3771 11.3737 16.3771 11.497C16.3771 11.6203 16.3771 11.7437 16.3771 11.867H15.0821C15.0574 11.9163 15.0451 11.978 15.0451 12.052C15.0451 12.126 15.0451 12.1877 15.0451 12.237H15.1561V12.607H14.6011V13.347H16.3771V13.532H10.3831V13.902H12.2701V14.642H16.0811V14.827H14.5271V15.012H13.5281V15.752H16.3771C16.4018 15.8507 16.4141 15.9493 16.4141 16.048C16.4141 16.122 16.4141 16.2083 16.4141 16.307H17.4501V16.492H12.6771V16.862H11.6041V17.047H16.4141V17.084H23.8141C24.2828 17.084 24.5541 17.3183 24.6281 17.787H30.1041V18.342H29.8451L29.7711 19.082H29.3641L29.3271 19.452H30.2891C30.2891 19.526 30.2768 19.5877 30.2521 19.637H30.0301C30.0054 19.6863 29.9931 19.748 29.9931 19.822H31.2141L31.1031 20.377H29.9561C29.9561 20.4017 29.9438 20.4263 29.9191 20.451C29.9191 20.4757 29.9191 20.5127 29.9191 20.562H29.6231C29.5984 20.6607 29.5614 20.7593 29.5121 20.858C29.4874 20.932 29.4628 21.0183 29.4381 21.117H29.8821C29.8821 21.1417 29.8574 21.2033 29.8081 21.302H29.0681C29.0188 21.4253 28.9571 21.5487 28.8831 21.672C28.8338 21.7953 28.7721 21.9187 28.6981 22.042H29.4381L29.1051 22.597H29.4381L29.0681 23.152H28.8461C28.7474 23.2753 28.6364 23.3987 28.5131 23.522C28.4144 23.6453 28.3034 23.7687 28.1801 23.892H27.8841C27.8594 23.9167 27.8348 23.9413 27.8101 23.966C27.7854 23.9907 27.7484 24.0277 27.6991 24.077H26.1081L25.9231 24.262H33.3601C33.2121 24.3853 33.0641 24.5087 32.9161 24.632C32.7681 24.7553 32.6078 24.8787 32.4351 25.002H32.0281C31.7814 25.1747 31.4854 25.3597 31.1401 25.557H23.3331C23.0864 25.705 22.8274 25.8407 22.5561 25.964C22.2848 26.0627 22.0134 26.1737 21.7421 26.297H27.8471C27.7731 26.3217 27.6868 26.3463 27.5881 26.371C27.5141 26.3957 27.4278 26.4327 27.3291 26.482H25.8491C25.7504 26.5067 25.6518 26.5313 25.5531 26.556C25.4544 26.5807 25.3558 26.6177 25.2571 26.667H22.5931C21.7051 26.9137 20.7924 27.0987 19.8551 27.222H20.4471C20.0524 27.2713 19.6454 27.3083 19.2261 27.333C18.8068 27.3577 18.3874 27.37 17.9681 27.37C17.4994 27.37 17.0431 27.3577 16.5991 27.333C16.1798 27.3083 15.7604 27.2713 15.3411 27.222H14.7491C13.7624 27.0987 12.8498 26.9137 12.0111 26.667H14.6751C14.5764 26.6177 14.4778 26.5807 14.3791 26.556C14.3051 26.5313 14.2188 26.5067 14.1201 26.482H15.6371L15.1191 26.297H9.0141C8.76744 26.1737 8.50844 26.0627 8.2371 25.964C7.99044 25.8407 7.74377 25.705 7.4971 25.557H15.3411C15.1931 25.4583 15.0451 25.372 14.8971 25.298C14.7491 25.1993 14.6134 25.1007 14.4901 25.002H14.8971C14.6011 24.78 14.3174 24.5333 14.0461 24.262H6.5721C6.54743 24.2127 6.52277 24.1757 6.4981 24.151C6.47344 24.1263 6.43644 24.1017 6.3871 24.077H8.0151C7.99044 24.0277 7.95344 23.9907 7.9041 23.966C7.87944 23.9413 7.85477 23.9167 7.8301 23.892H8.1261C7.9041 23.6453 7.69443 23.3987 7.4971 23.152H7.7191L7.3861 22.597H7.0531L6.7201 22.042H5.9801L5.6471 21.302H6.4241L6.3501 21.117H5.8691C5.84444 21.0183 5.81977 20.932 5.7951 20.858C5.77043 20.7593 5.73344 20.6607 5.6841 20.562H5.9801L5.9061 20.377H7.0531C7.02844 20.2783 7.00377 20.192 6.9791 20.118C6.95443 20.0193 6.92977 19.9207 6.9051 19.822H6.3131C6.28843 19.7727 6.2761 19.711 6.2761 19.637H5.6471C5.62243 19.5877 5.6101 19.526 5.6101 19.452H5.6471C5.6471 19.3533 5.62243 19.23 5.5731 19.082H3.4641L3.3531 18.342H6.2021C6.17743 18.2433 6.1651 18.157 6.1651 18.083C6.1651 17.9843 6.15277 17.8857 6.1281 17.787H6.8311C6.8311 17.713 6.8311 17.639 6.8311 17.565C6.8311 17.491 6.81877 17.417 6.7941 17.343V17.047H1.9841V16.862H3.0571V16.492H7.8301V16.307H6.7941C6.7941 16.2083 6.78177 16.122 6.7571 16.048C6.7571 15.9493 6.7571 15.8507 6.7571 15.752H3.9081V15.012H4.9071V14.827H6.4611V14.642H2.6501V13.902H0.763101V13.532H6.7571V13.347H4.9811V12.607H5.5361V12.237H5.4251V11.867H6.7571V11.127H3.5381V10.942H10.6421V10.757C10.6668 10.6583 10.6791 10.572 10.6791 10.498C10.6791 10.3993 10.6791 10.3007 10.6791 10.202H8.7181C8.7181 10.0787 8.7181 9.95533 8.7181 9.832C8.74277 9.70867 8.76744 9.58533 8.7921 9.462H9.9761C10.0008 9.41267 10.0131 9.351 10.0131 9.277H2.3541C2.37877 9.22767 2.3911 9.166 2.3911 9.092C2.3911 9.018 2.40343 8.95633 2.4281 8.907H9.1621L9.3471 8.167H7.8301L7.9411 7.797H5.4621L5.5361 7.612H6.3501C6.37477 7.56267 6.39944 7.501 6.4241 7.427C6.44877 7.353 6.47344 7.29133 6.4981 7.242H6.0911L6.2391 6.872H6.4241C6.47343 6.77333 6.52277 6.687 6.5721 6.613C6.62143 6.51433 6.65843 6.41567 6.6831 6.317H6.7201L7.0531 5.762H6.9421C6.99144 5.66333 7.04077 5.577 7.0901 5.503C7.1641 5.40433 7.2381 5.30567 7.3121 5.207H7.0161C7.11477 5.08367 7.21344 4.96033 7.3121 4.837C7.41077 4.689 7.50944 4.56567 7.6081 4.467H7.2751C7.29977 4.41767 7.32444 4.38067 7.3491 4.356C7.37377 4.33133 7.39844 4.30667 7.4231 4.282H7.0531L7.2381 4.097H7.1641C7.21344 4.04767 7.25044 4.01066 7.2751 3.986C7.29977 3.96133 7.32444 3.93667 7.3491 3.912H6.6831C6.73244 3.86267 6.7941 3.801 6.8681 3.727C6.9421 3.653 7.0161 3.59133 7.0901 3.542H7.9781C8.10144 3.44333 8.22477 3.357 8.3481 3.283C8.47144 3.18433 8.59477 3.08567 8.7181 2.987H8.3111L8.6071 2.802H7.9781C8.02744 2.75267 8.07677 2.71567 8.1261 2.691C8.17544 2.66633 8.22477 2.64166 8.2741 2.617H10.1981C10.3708 2.51833 10.5434 2.432 10.7161 2.358C10.8888 2.25933 11.0614 2.16067 11.2341 2.062H11.1231C11.2711 1.988 11.4191 1.92633 11.5671 1.877C11.7151 1.803 11.8631 1.74133 12.0111 1.692H12.7141C12.7881 1.64267 12.8621 1.60567 12.9361 1.581C13.0348 1.55633 13.1334 1.53167 13.2321 1.507H12.1221C12.8621 1.23567 13.6514 1.05066 14.4901 0.951998H15.4891C16.4511 0.803998 17.4624 0.729999 18.5231 0.729999C19.5591 0.729999 20.5581 0.803998 21.5201 0.951998H20.5581C21.3721 1.05066 22.1861 1.23567 23.0001 1.507H24.1101C24.2088 1.53167 24.2951 1.55633 24.3691 1.581C24.4678 1.60567 24.5664 1.64267 24.6651 1.692H23.9621C24.3321 1.81533 24.6404 1.93867 24.8871 2.062H24.9981C25.1954 2.16067 25.3804 2.25933 25.5531 2.358C25.7258 2.432 25.8984 2.51833 26.0711 2.617H24.1841C24.2334 2.64166 24.2828 2.66633 24.3321 2.691C24.3814 2.71567 24.4308 2.75267 24.4801 2.802H25.1091C25.1584 2.82666 25.2078 2.85133 25.2571 2.876C25.3064 2.90067 25.3434 2.93767 25.3681 2.987H25.7751L26.5151 3.542H25.5901L26.0341 3.912H26.7001L26.9221 4.097H26.9591L27.1441 4.282H27.5141L27.6991 4.467H28.0321C28.1308 4.56567 28.2294 4.689 28.3281 4.837C28.4268 4.96033 28.5254 5.08367 28.6241 5.207H28.8831C28.9571 5.30567 29.0188 5.40433 29.0681 5.503C29.1421 5.577 29.2038 5.66333 29.2531 5.762H29.3641C29.4134 5.86067 29.4628 5.95933 29.5121 6.058C29.5614 6.132 29.6108 6.21833 29.6601 6.317H29.5861C29.6354 6.41567 29.6848 6.51433 29.7341 6.613C29.7834 6.687 29.8204 6.77333 29.8451 6.872H29.6601L29.7711 7.242H30.1781L30.2891 7.612H29.4751C29.4751 7.63667 29.4751 7.66133 29.4751 7.686C29.4998 7.71067 29.5121 7.74767 29.5121 7.797H31.9911C31.9911 7.89566 32.0158 8.019 32.0651 8.167H28.6981L28.8091 8.907H30.9551L30.9921 9.277H35.4691ZM18.4861 8.167H21.1131C20.7184 8.019 20.2744 7.945 19.7811 7.945C19.2878 7.945 18.8561 8.019 18.4861 8.167ZM24.8871 9.943C24.8624 9.84433 24.8378 9.758 24.8131 9.684C24.7884 9.61 24.7514 9.536 24.7021 9.462H25.5901L25.4791 9.277H21.0391C21.0144 9.203 20.9774 9.14133 20.9281 9.092C20.8788 9.018 20.8294 8.95633 20.7801 8.907H12.3811C12.3564 8.95633 12.3194 9.018 12.2701 9.092C12.2454 9.14133 12.2084 9.203 12.1591 9.277H19.8181L19.7441 9.462H18.5601C18.5108 9.56067 18.4738 9.684 18.4491 9.832C18.4244 9.95533 18.3998 10.0787 18.3751 10.202H24.9981L24.8871 9.943ZM20.5211 17.787H15.7851L15.8961 18.342H13.0471C13.0964 18.49 13.1458 18.6257 13.1951 18.749C13.2444 18.8477 13.3061 18.9587 13.3801 19.082H15.4891C15.5384 19.156 15.5878 19.23 15.6371 19.304C15.6864 19.3533 15.7358 19.4027 15.7851 19.452H15.7111L15.8961 19.637H16.5251C16.5744 19.6617 16.6238 19.6987 16.6731 19.748C16.7224 19.7727 16.7718 19.7973 16.8211 19.822H17.4131C17.8324 20.044 18.3381 20.155 18.9301 20.155C19.5221 20.155 20.0154 20.044 20.4101 19.822H19.1891L19.4851 19.637H19.7071L19.9291 19.452H18.9671C19.0164 19.4027 19.0658 19.3533 19.1151 19.304C19.1891 19.23 19.2384 19.156 19.2631 19.082H19.6701C19.8181 18.86 19.9414 18.6133 20.0401 18.342H20.2991L20.3731 18.157C20.4224 18.009 20.4718 17.8857 20.5211 17.787ZM55.0568 14.457H62.0128V14.642H60.1258V15.382H57.1288V16.122H56.8698V16.307H57.2028V17.047H55.1678V17.232C55.1678 17.3307 55.1555 17.4293 55.1308 17.528C55.1308 17.602 55.1308 17.6883 55.1308 17.787H56.6108C56.6108 17.8857 56.5985 17.9843 56.5738 18.083C56.5738 18.157 56.5738 18.2433 56.5738 18.342H55.7968L55.6858 19.082H56.2778C56.2532 19.1313 56.2408 19.193 56.2408 19.267C56.2408 19.341 56.2285 19.4027 56.2038 19.452H56.6478C56.6232 19.5753 56.5985 19.6987 56.5738 19.822C56.5492 19.9453 56.5245 20.0687 56.4998 20.192H56.5368C56.5122 20.3153 56.4875 20.4387 56.4628 20.562C56.4382 20.6853 56.4012 20.8087 56.3518 20.932H56.4998C56.4998 20.9567 56.4752 21.0183 56.4258 21.117H56.6108C56.5615 21.2403 56.5122 21.3637 56.4628 21.487C56.4135 21.6103 56.3642 21.7337 56.3148 21.857H56.2038L55.9078 22.412H55.8338L55.5008 22.967H55.6118C55.5378 23.0657 55.4638 23.1643 55.3898 23.263C55.3158 23.337 55.2542 23.4233 55.2048 23.522H54.7608C54.6622 23.67 54.5635 23.7933 54.4648 23.892H54.1318L53.5768 24.447H53.6508L53.4288 24.632H50.9868L50.7648 24.817H50.9868L50.5058 25.187H52.7628L52.4668 25.372H54.3538C54.1318 25.4953 53.9098 25.6187 53.6878 25.742C53.4658 25.8653 53.2315 25.9887 52.9848 26.112H52.2448C52.1708 26.1367 52.0968 26.1613 52.0228 26.186C51.9488 26.2107 51.8748 26.2477 51.8008 26.297H53.2438C53.1452 26.3217 53.0588 26.3463 52.9848 26.371C52.9108 26.3957 52.8368 26.4327 52.7628 26.482H47.8788C47.7062 26.556 47.5088 26.63 47.2868 26.704C47.0895 26.7533 46.8798 26.8027 46.6578 26.852H50.3948C50.0742 26.926 49.7412 26.9877 49.3958 27.037C49.0752 27.111 48.7422 27.1727 48.3968 27.222H43.9198C43.5252 27.2713 43.1058 27.3083 42.6618 27.333C42.2425 27.3577 41.8232 27.37 41.4038 27.37C40.9598 27.37 40.5282 27.3577 40.1088 27.333C39.6895 27.3083 39.2702 27.2713 38.8508 27.222H43.3278C42.9825 27.1727 42.6372 27.111 42.2918 27.037C41.9712 26.9877 41.6505 26.926 41.3298 26.852H37.5928C37.3708 26.8027 37.1612 26.7533 36.9638 26.704C36.7665 26.63 36.5692 26.556 36.3718 26.482H41.2188C41.1448 26.4327 41.0585 26.3957 40.9598 26.371C40.8858 26.3463 40.8118 26.3217 40.7378 26.297H39.2948L38.8878 26.112H39.6648C39.4182 25.9887 39.1838 25.8653 38.9618 25.742C38.7398 25.6187 38.5178 25.4953 38.2958 25.372H36.4458C36.3965 25.3227 36.3472 25.2857 36.2978 25.261C36.2732 25.2363 36.2362 25.2117 36.1868 25.187H33.9298C33.8312 25.1377 33.7448 25.076 33.6708 25.002C33.5968 24.928 33.5228 24.8663 33.4488 24.817H33.2268L33.0048 24.632H35.4468L35.2248 24.447H35.1878L34.6328 23.892H35.0028L34.6698 23.522H35.0768L34.7068 22.967H34.5958L34.2628 22.412H34.3368C34.2875 22.3133 34.2382 22.227 34.1888 22.153C34.1642 22.0543 34.1272 21.9557 34.0778 21.857H34.1518C34.1025 21.7337 34.0532 21.6103 34.0038 21.487C33.9545 21.3637 33.9052 21.2403 33.8558 21.117H33.7078L33.6338 20.932H33.4858C33.3872 20.71 33.3132 20.4633 33.2638 20.192H33.1898C33.1652 20.0687 33.1405 19.9453 33.1158 19.822C33.0912 19.6987 33.0665 19.5753 33.0418 19.452H33.2268C33.2022 19.4027 33.1898 19.341 33.1898 19.267C33.1898 19.193 33.1775 19.1313 33.1528 19.082H33.4118L33.3378 18.342H33.4118C33.3872 18.2433 33.3748 18.157 33.3748 18.083C33.3748 17.9843 33.3748 17.8857 33.3748 17.787H33.0788V17.047H31.4508V16.307H30.0818V16.122H31.2658V15.382H34.3738V14.642H38.1848V14.457H35.1878V13.902H34.1148V13.347H32.8198V12.792H31.2658V12.052H32.8198V10.757H33.2268V10.387H33.4118V10.202H33.5228V9.462H33.1898V9.092H33.3748V8.907H32.8198V8.167H32.4128V7.797H29.5638V7.427H26.2338V7.057H35.3358V6.872H32.6348V6.132H33.2638V5.762H32.8568V5.207H36.8898V4.467H30.8588V4.282H35.0028V3.912H32.9678V3.542H32.1168V3.172H34.8548V2.432H33.2268V2.247H33.1528V2.099C33.1528 1.90166 33.1775 1.766 33.2268 1.692H33.0048C33.1775 1.29733 33.4858 1.1 33.9298 1.1H41.1818C41.6012 1.1 41.8972 1.29733 42.0698 1.692H42.2918C42.3658 1.79067 42.4028 1.92633 42.4028 2.099V2.247H42.4768V2.432H44.1048V3.172H41.3668V3.542H42.2178V3.912H44.2528V4.282H40.1088V4.467H46.1398V5.207H42.1068V5.762H42.5138V6.132H41.8848V6.872H47.5458V6.132H47.8788V5.762H49.6178V5.207H52.5038V4.467H49.3958V4.282H46.9538V3.912H47.5088V3.542H50.4318V3.172H48.6558V2.432H47.8418V2.247H47.0648V2.099C47.0648 1.90166 47.0895 1.766 47.1388 1.692H47.9528C48.1255 1.29733 48.4338 1.1 48.8778 1.1H56.1298C56.5738 1.1 56.8822 1.29733 57.0548 1.692H56.2038C56.2778 1.79067 56.3148 1.92633 56.3148 2.099V2.247H57.0918V2.432H57.9058V3.172H59.6818V3.542H56.7588V3.912H56.2038V4.282H58.6458V4.467H61.7538V5.207H58.8678V5.762H57.1288V6.132H56.7958V6.872H52.9478V7.057H56.8328V7.427H54.9458V7.797H52.3558V8.167H55.0568V8.907H56.5368V9.092H57.4248V9.462H57.5728V10.202H57.1288V10.387H57.0918V10.757H57.3878V11.497H57.8318V12.052H57.9428V12.792H54.9828V13.347H56.3148V13.902H55.0568V14.457ZM43.3648 13.902H44.4378V14.457H45.8068V13.902H47.0648V13.347H45.7328V12.792H48.6928V12.052H48.5818V11.497H48.1378V10.757H47.8418V10.387H47.8788V10.202H48.3228V9.462H48.1748V9.092H47.2868V8.907H45.8068V8.167H43.1058V7.797H45.6958V7.427H47.5828V7.057H35.4838V7.427H38.8138V7.797H41.6628V8.167H42.0698V8.907H42.6248V9.092H42.4398V9.462H42.7728V10.202H42.6618V10.387H42.4768V10.757H42.0698V12.052H40.5158V12.792H42.0698V13.347H43.3648V13.902ZM50.8758 14.642H52.7628V14.457H47.4348V14.642H43.6238V15.382H40.5158V16.122H39.3318V16.307H40.7008V17.047H42.3288V17.084C42.3288 17.2073 42.3288 17.3307 42.3288 17.454C42.3288 17.5527 42.3412 17.6637 42.3658 17.787H42.6618L42.7728 18.342H42.7358C42.7852 18.5887 42.9208 18.8353 43.1428 19.082H42.8838C42.9825 19.23 43.1058 19.3533 43.2538 19.452H43.0688C43.4882 19.7727 44.0802 19.933 44.8448 19.933C45.5848 19.933 46.1645 19.7727 46.5838 19.452H46.1768C46.3248 19.3533 46.4482 19.23 46.5468 19.082H45.9918C46.1398 18.8847 46.2755 18.638 46.3988 18.342H47.1758C47.2252 18.2433 47.2498 18.157 47.2498 18.083C47.2745 17.9843 47.2992 17.8857 47.3238 17.787H45.8438C45.8685 17.6637 45.8808 17.5527 45.8808 17.454C45.9055 17.3307 45.9178 17.2073 45.9178 17.084V17.047H47.9528V16.307H47.6198V16.122H47.8788V15.382H50.8758V14.642ZM85.8813 23.337H82.6623L82.2923 23.892H85.3263L84.9933 24.262H82.4773L82.2923 24.447H82.6253C82.3293 24.743 82.0333 24.9897 81.7373 25.187H82.3293C82.1566 25.3103 81.9593 25.4337 81.7373 25.557H81.5523L81.2193 25.742H81.2933C81.244 25.7667 81.1823 25.7913 81.1083 25.816C81.0343 25.8407 80.9726 25.8777 80.9233 25.927H80.8123C80.5656 26.0257 80.3066 26.1243 80.0353 26.223C79.764 26.3217 79.4803 26.408 79.1843 26.482H79.2583C78.9376 26.556 78.617 26.63 78.2963 26.704C77.9756 26.7533 77.6426 26.8027 77.2973 26.852H77.4083C77.0136 26.9013 76.5943 26.9383 76.1503 26.963C75.731 26.9877 75.287 27 74.8183 27H62.1643C61.9423 27 61.7696 26.9507 61.6463 26.852H61.4983C61.375 26.778 61.264 26.6547 61.1653 26.482H61.0913C61.0173 26.334 60.9803 26.1737 60.9803 26.001V25.927H61.0913V25.742H61.0173V25.557H61.2023V25.187H60.6103V24.447H60.2773V24.262H62.7933V23.892H59.7223V23.337H62.9413V22.597H60.2773V22.412H60.2403V22.042H62.2013V21.672H60.8323V21.302H62.0533V20.747H60.9803V20.192H61.6463V20.007H61.0913V18.897H60.8323V18.527H61.0173V17.972H60.7953V17.417H60.1663V17.047H59.3893V16.677H61.3503V16.492H58.7233V16.307H61.2023V16.122H60.5363V15.937H60.9433V15.567H60.6843V15.012H60.7213V14.457H60.8693V14.272H60.9803V13.902H61.8683V13.162H62.4603V12.607H61.0913V11.867H60.8323V11.497H60.3883V10.942H60.9803V10.202H60.0183V10.017H61.0543V9.832H62.3123V9.462H62.8673V9.277H60.0553V8.722H61.0913V8.167H60.9433V7.797H60.9803V7.427H60.8693V6.872H60.7953V6.687H61.4243V6.502H60.2403V5.947H60.6473V5.762H60.7953V4.837H60.9803V4.652H58.9083V4.467H59.8333V3.912H61.9053V3.357H58.7973V3.172H59.7963V2.802H60.0553V2.062H59.9813C59.9813 1.86467 60.043 1.67967 60.1663 1.507H61.4983C61.6956 1.23567 61.9546 1.1 62.2753 1.1H74.5593C75.3733 1.1 76.1256 1.137 76.8163 1.211C77.5316 1.285 78.1976 1.38367 78.8143 1.507H77.5193C77.84 1.581 78.1483 1.66733 78.4443 1.766C78.765 1.84 79.0486 1.93867 79.2953 2.062H79.3693C79.6406 2.16067 79.8873 2.27167 80.1093 2.395C80.3313 2.51833 80.5533 2.654 80.7753 2.802H80.5163C80.615 2.85133 80.7013 2.913 80.7753 2.987C80.874 3.061 80.9603 3.12267 81.0343 3.172H80.0353L80.2573 3.357H83.3653C83.464 3.45566 83.5503 3.55433 83.6243 3.653C83.723 3.727 83.8093 3.81333 83.8833 3.912H81.8113C81.8853 4.01067 81.9593 4.10933 82.0333 4.208C82.1073 4.282 82.169 4.36833 82.2183 4.467H81.2933L81.4043 4.652H83.4763L83.5873 4.837H83.4023C83.4763 4.96033 83.538 5.08367 83.5873 5.207C83.6366 5.30567 83.686 5.40433 83.7353 5.503C83.7846 5.577 83.8216 5.66333 83.8463 5.762H83.6613L83.7353 5.947H83.3283C83.3776 6.04567 83.4146 6.14433 83.4393 6.243C83.464 6.317 83.4886 6.40333 83.5133 6.502H84.6973C84.6973 6.52667 84.6973 6.55133 84.6973 6.576C84.722 6.60067 84.7343 6.63767 84.7343 6.687H84.1053C84.13 6.73633 84.1423 6.798 84.1423 6.872H84.2163L84.3273 7.427H84.4383C84.4383 7.47633 84.4383 7.538 84.4383 7.612C84.4383 7.686 84.4506 7.74767 84.4753 7.797C84.4753 7.84633 84.4753 7.908 84.4753 7.982C84.4753 8.056 84.4876 8.11767 84.5123 8.167H84.4753C84.5 8.26567 84.5123 8.36433 84.5123 8.463C84.5123 8.537 84.5123 8.62333 84.5123 8.722H84.1793V8.87C84.1793 8.944 84.167 9.018 84.1423 9.092C84.1423 9.14133 84.1423 9.203 84.1423 9.277H84.8083C84.8083 9.30167 84.796 9.32633 84.7713 9.351C84.7713 9.37567 84.7713 9.41267 84.7713 9.462H84.3643L84.3273 9.832H84.8823C84.8823 9.906 84.87 9.96767 84.8453 10.017H84.3643C84.3396 10.0663 84.3273 10.128 84.3273 10.202C84.2533 10.424 84.1546 10.6707 84.0313 10.942H83.4393L83.1433 11.497H83.5873C83.538 11.5463 83.4886 11.608 83.4393 11.682C83.4146 11.756 83.3776 11.8177 83.3283 11.867H83.5503C83.353 12.163 83.131 12.4097 82.8843 12.607H84.2903C84.0436 12.8537 83.8093 13.0387 83.5873 13.162H82.9953C82.8226 13.31 82.6376 13.421 82.4403 13.495C82.5636 13.5443 82.687 13.606 82.8103 13.68C82.9583 13.754 83.094 13.828 83.2173 13.902H82.3293C82.4773 14.0007 82.65 14.124 82.8473 14.272H82.7363L82.9583 14.457H82.8103L83.3653 15.012H83.3283C83.4023 15.1107 83.4763 15.2093 83.5503 15.308C83.6243 15.382 83.686 15.4683 83.7353 15.567H83.9943L84.2163 15.937H83.8093L83.9203 16.122H84.5863C84.5863 16.1467 84.611 16.2083 84.6603 16.307H82.1813L82.2923 16.492H84.9193C84.9193 16.5167 84.944 16.5783 84.9933 16.677H83.0323C83.0816 16.7263 83.1063 16.788 83.1063 16.862C83.131 16.936 83.1556 16.9977 83.1803 17.047H84.5493L84.6603 17.417H84.8453L84.9563 17.972H84.9193C84.944 18.0707 84.9563 18.1693 84.9563 18.268C84.981 18.342 84.9933 18.4283 84.9933 18.527H84.9563V18.897H84.9193V19.267H85.0673C85.0673 19.3903 85.055 19.5137 85.0303 19.637C85.0303 19.7603 85.018 19.8837 84.9933 20.007H86.0663C86.0663 20.0317 86.054 20.0563 86.0293 20.081C86.0293 20.1057 86.0293 20.1427 86.0293 20.192H84.9933C84.9686 20.2907 84.9563 20.3893 84.9563 20.488C84.9563 20.562 84.944 20.6483 84.9193 20.747H85.9553L85.8443 21.302H84.6233L84.5123 21.672H85.9183L85.7703 22.042H83.8093C83.7846 22.0913 83.76 22.153 83.7353 22.227C83.7353 22.301 83.7106 22.3627 83.6613 22.412H83.6983C83.6983 22.4367 83.6736 22.4983 83.6243 22.597H86.2883C86.1896 22.8437 86.054 23.0903 85.8813 23.337ZM69.2683 10.017V10.202H70.2303V10.831H73.3383C73.9056 10.831 74.3126 10.6213 74.5593 10.202L74.6703 10.017H75.1513L75.2253 9.832H74.6333L74.7443 9.462H75.1513V9.277H74.4853C74.51 9.25233 74.5223 9.21533 74.5223 9.166C74.5223 9.092 74.51 9.018 74.4853 8.944C74.4853 8.87 74.473 8.796 74.4483 8.722H74.8183C74.7936 8.52467 74.7196 8.33967 74.5963 8.167C74.5716 8.093 74.5223 8.03133 74.4483 7.982C74.399 7.908 74.3496 7.84633 74.3003 7.797C74.177 7.69833 74.029 7.62433 73.8563 7.575C73.7083 7.501 73.5356 7.464 73.3383 7.464H70.2303V7.797H70.1933V8.167H70.3413V8.722H69.3053V9.277H72.1173V9.462H71.5623V9.832H70.3043V10.017H69.2683ZM70.3413 20.007H70.8963V20.192H70.2303V20.636H73.6713C73.9426 20.636 74.1646 20.599 74.3373 20.525C74.5346 20.4263 74.7073 20.3153 74.8553 20.192H75.8913C75.916 20.1427 75.9406 20.1057 75.9653 20.081C75.99 20.0563 76.0146 20.0317 76.0393 20.007H75.0033C75.1513 19.785 75.2623 19.5383 75.3363 19.267H75.1883C75.213 19.2177 75.2253 19.156 75.2253 19.082C75.2253 19.008 75.2253 18.9463 75.2253 18.897H75.2623V18.527H75.2993C75.2746 18.4283 75.25 18.342 75.2253 18.268C75.2006 18.1693 75.1636 18.0707 75.1143 17.972H75.1513C75.028 17.7253 74.8923 17.5403 74.7443 17.417H74.5593C74.3866 17.2443 74.14 17.121 73.8193 17.047H72.4503C72.3763 17.0223 72.253 17.01 72.0803 17.01H68.6393V17.047H69.4163V17.417H70.0453V17.972H70.2673V18.527H70.0823V18.897H70.3413V20.007ZM111.536 20.562H114.459V21.117H108.835V21.857H112.461V22.597H109.279V23.337H109.686V23.892H109.427V24.262H108.65V24.632H108.613V25.002H109.39V25.742H110.463V26.001C110.463 26.0503 110.451 26.0873 110.426 26.112H103.84C103.816 26.1613 103.803 26.223 103.803 26.297H106.356C106.282 26.5437 106.147 26.7287 105.949 26.852H105.246C105.123 26.9507 104.95 27 104.728 27H85.4512C85.2539 27 85.0689 26.9507 84.8962 26.852H85.5992C85.4265 26.7287 85.2909 26.5437 85.1922 26.297H82.6022C82.5775 26.2477 82.5652 26.186 82.5652 26.112H89.1882V25.742H88.1152V25.002H87.3382V24.632H87.3752V24.262H88.1522V23.892H88.4112V23.337H88.0042V22.597H91.1862V21.857H87.5602V21.117H93.1842V20.562H90.2612V20.192H91.1122V19.822H91.4822V19.452H87.3752V19.082H86.4132V18.527H89.8542V18.342H87.1162V17.972H87.9302V17.602H88.5222V17.047H88.4482V16.307H88.0782V15.567H87.5232V15.197H87.9672V14.457H87.5602V14.087H88.1522V13.532H88.3002V12.977H88.9662V12.792H88.3372V12.052H87.7822V11.497H87.9302V10.942H88.0042V10.202H88.5592V9.462H87.7452V8.722H87.8562V7.982H88.8922V7.427H88.3372V6.872H88.0412V6.687H89.5952V6.132H92.3332V5.762H91.2232V5.392H87.6342V5.207H88.0412V4.652H88.0782V4.097H88.1892V3.357H88.1522V2.432H88.0782V2.099C88.0782 2.00033 88.0905 1.92633 88.1152 1.877H87.7452C87.8439 1.359 88.1645 1.1 88.7072 1.1H107.688C108.256 1.1 108.576 1.359 108.65 1.877H109.02C109.045 1.92633 109.057 2.00033 109.057 2.099V2.432H109.131V3.357H109.168V4.097H109.057V4.652H109.02V5.207H108.613V5.392H112.202V5.762H113.312V6.132H110.574V6.687H109.02V6.872H109.316V7.427H109.871C109.822 7.67366 109.736 7.85867 109.612 7.982H108.576C108.404 8.204 108.157 8.315 107.836 8.315H96.7362V8.722H96.6252V9.462H97.4392V10.202H96.8842V10.646H107.17C107.442 10.646 107.676 10.7447 107.873 10.942H107.799C107.923 11.0653 108.009 11.2503 108.058 11.497H107.947V12.052H108.502V12.792H109.131V12.977H108.465V13.532H108.317V14.087H107.725V14.457H108.132V15.197H107.688V15.567H108.243V16.307H108.613V16.455C108.613 16.7263 108.552 16.9237 108.428 17.047H108.502C108.305 17.3183 108.034 17.454 107.688 17.454H97.4022V17.602H96.8102V17.972H95.9962V18.342H98.7342V18.527H95.2932V19.082H96.2552V19.452H100.362V19.785H111.758C111.882 19.785 111.98 19.7973 112.054 19.822H111.647C111.894 19.896 112.079 20.0193 112.202 20.192H111.351C111.45 20.34 111.512 20.4633 111.536 20.562Z" fill="white"/>
</svg>
