<svg width="194" height="87" viewBox="0 0 194 87" fill="none" xmlns="http://www.w3.org/2000/svg">
<path d="M10.4667 85V40.28L0.0893334 41.4267V29.2147C2.22978 28.9089 4.02622 28.5649 5.47867 28.1827C6.93111 27.8004 8.46 27.208 10.0653 26.4053C11.6707 25.6027 13.0467 24.4942 14.1933 23.08C15.34 21.6658 16.2764 19.9267 17.0027 17.8627H29.6733V85H10.4667ZM64.5463 75.2533C66.381 75.4062 67.9481 74.8329 69.2477 73.5333C70.5854 72.2338 71.2543 70.6093 71.2543 68.66C71.2543 67.8573 71.0823 67.1311 70.7383 66.4813C70.4326 65.8316 69.8592 65.2009 69.0183 64.5893C68.2157 63.9778 67.413 63.4427 66.6103 62.984C65.8077 62.4871 64.6419 61.7991 63.113 60.92C61.5841 60.0409 60.2463 59.2191 59.0997 58.4547C56.921 60.2129 55.8126 62.4871 55.7743 65.2773C55.7361 68.5262 56.4241 70.9342 57.8383 72.5013C59.2526 74.0302 61.4886 74.9476 64.5463 75.2533ZM67.241 41.828C67.929 42.2484 68.7126 42.7071 69.5917 43.204C70.0886 42.6307 70.5472 42.0573 70.9677 41.484C71.3881 40.9107 71.7512 40.3373 72.057 39.764C72.401 39.1524 72.6877 38.56 72.917 37.9867C73.1846 37.4133 73.3757 36.84 73.4903 36.2667C73.6432 35.6933 73.7197 35.1582 73.7197 34.6613C73.7197 32.712 72.8406 31.0111 71.0823 29.5587C69.3623 28.1062 67.585 27.38 65.7503 27.38C63.9157 27.38 62.3294 27.9724 60.9917 29.1573C59.6921 30.3422 59.0232 31.8138 58.985 33.572C58.985 34.2982 59.0997 34.9862 59.329 35.636C59.5966 36.2476 59.9023 36.7827 60.2463 37.2413C60.5903 37.6618 61.0872 38.1204 61.737 38.6173C62.425 39.076 62.9983 39.4391 63.457 39.7067C63.9157 39.9742 64.5654 40.3373 65.4063 40.796C66.2472 41.2547 66.8588 41.5987 67.241 41.828ZM64.5463 86.204C59.8832 86.204 55.6406 85.4969 51.8183 84.0827C48.0343 82.6684 44.9957 80.5662 42.7023 77.776C40.409 74.9476 39.2623 71.6796 39.2623 67.972C39.2623 66.0991 39.6828 64.2262 40.5237 62.3533C41.3646 60.4804 42.7023 58.7222 44.537 57.0787C46.4099 55.3969 48.5886 54.2311 51.073 53.5813C49.5823 52.5493 48.2828 51.5364 47.1743 50.5427C46.1041 49.5489 45.0721 48.364 44.0783 46.988C43.0846 45.5738 42.3392 43.9493 41.8423 42.1147C41.3454 40.2418 41.1161 38.1778 41.1543 35.9227C41.269 29.9218 43.4668 25.2778 47.7477 21.9907C52.0286 18.7036 58.0486 17.06 65.8077 17.06C69.3241 17.06 72.5348 17.5187 75.4397 18.436C78.3446 19.3151 80.7143 20.5 82.549 21.9907C84.3837 23.4813 85.7979 25.1631 86.7917 27.036C87.7854 28.8707 88.2632 30.7818 88.225 32.7693C88.1868 34.1071 87.9766 35.4067 87.5943 36.668C87.2503 37.9293 86.6579 39.1907 85.817 40.452C85.0143 41.7133 83.8868 42.9556 82.4343 44.1787C80.9819 45.3636 79.2428 46.472 77.217 47.504C79.3192 48.7271 81.0966 49.8929 82.549 51.0013C84.0397 52.1098 85.473 53.4093 86.849 54.9C88.2632 56.3524 89.3143 57.9769 90.0023 59.7733C90.7286 61.5698 91.0917 63.5191 91.0917 65.6213C91.0917 70.1698 89.9259 74.0111 87.5943 77.1453C85.2628 80.2796 82.1286 82.5729 78.1917 84.0253C74.293 85.4778 69.7446 86.204 64.5463 86.204ZM116.942 59.028C116.942 65.2582 117.516 69.6538 118.662 72.2147C119.809 74.7373 121.625 75.9987 124.109 75.9987C125.944 75.9987 127.358 75.5782 128.352 74.7373C129.345 73.8582 130.129 71.9853 130.702 69.1187C131.276 66.2138 131.562 61.9902 131.562 56.448V42.6307C131.562 31.8138 129.078 26.4053 124.109 26.4053C121.586 26.4053 119.752 27.7431 118.605 30.4187C117.497 33.0942 116.942 37.8338 116.942 44.6373V59.028ZM122.905 86.204C118.471 86.204 114.63 85.6498 111.381 84.5413C108.17 83.3947 105.571 81.8658 103.584 79.9547C101.596 78.0436 100.01 75.5782 98.8249 72.5587C97.6783 69.5391 96.8947 66.3858 96.4743 63.0987C96.0538 59.8116 95.8436 55.9893 95.8436 51.632C95.8436 47.0836 96.1112 43.0893 96.6463 39.6493C97.1814 36.2093 98.1178 33.0178 99.4556 30.0747C100.793 27.0933 102.571 24.6662 104.788 22.7933C107.005 20.8822 109.833 19.3916 113.273 18.3213C116.751 17.2511 120.822 16.716 125.485 16.716C129.919 16.716 133.76 17.2893 137.009 18.436C140.296 19.5827 142.914 21.1307 144.864 23.08C146.851 25.0293 148.437 27.5329 149.622 30.5907C150.807 33.6484 151.61 36.8209 152.03 40.108C152.451 43.3569 152.661 47.16 152.661 51.5173C152.661 56.0658 152.393 60.06 151.858 63.5C151.323 66.94 150.368 70.1316 148.992 73.0747C147.654 76.0178 145.857 78.4258 143.602 80.2987C141.385 82.1716 138.538 83.624 135.06 84.656C131.62 85.688 127.568 86.204 122.905 86.204ZM176.506 9.32C174.289 9.32 172.473 10.18 171.059 11.9C169.645 13.5818 168.938 15.6076 168.938 17.9773C168.938 20.3471 169.645 22.3729 171.059 24.0547C172.473 25.7364 174.289 26.5773 176.506 26.5773C178.723 26.5773 180.538 25.7364 181.952 24.0547C183.405 22.3729 184.131 20.3471 184.131 17.9773C184.131 15.6076 183.405 13.5818 181.952 11.9C180.538 10.18 178.723 9.32 176.506 9.32ZM176.563 35.292C171.747 35.292 167.638 33.5911 164.236 30.1893C160.873 26.7876 159.191 22.6978 159.191 17.92C159.191 13.104 160.873 9.01422 164.236 5.65067C167.638 2.24889 171.747 0.548001 176.563 0.548001C181.341 0.548001 185.412 2.24889 188.775 5.65067C192.177 9.01422 193.878 13.104 193.878 17.92C193.878 22.6978 192.177 26.7876 188.775 30.1893C185.412 33.5911 181.341 35.292 176.563 35.292Z" fill="white"/>
</svg>
